<?xml version="1.0" encoding="UTF-8" standalone="no"?>
<!-- Created with Inkscape (http://www.inkscape.org/) -->

<svg
   width="165.49252mm"
   height="208.20364mm"
   viewBox="0 0 165.49252 208.20364"
   version="1.1"
   id="svg5"
   inkscape:version="1.2 (dc2aedaf03, 2022-05-15)"
   sodipodi:docname="dibujo trayectos.svg"
   xmlns:inkscape="http://www.inkscape.org/namespaces/inkscape"
   xmlns:sodipodi="http://sodipodi.sourceforge.net/DTD/sodipodi-0.dtd"
   xmlns="http://www.w3.org/2000/svg"
   xmlns:svg="http://www.w3.org/2000/svg">
  <sodipodi:namedview
     id="namedview7"
     pagecolor="#ffffff"
     bordercolor="#000000"
     borderopacity="0.25"
     inkscape:showpageshadow="2"
     inkscape:pageopacity="0.0"
     inkscape:pagecheckerboard="0"
     inkscape:deskcolor="#d1d1d1"
     inkscape:document-units="mm"
     showgrid="false"
     inkscape:zoom="0.59274141"
     inkscape:cx="234.50361"
     inkscape:cy="617.46994"
     inkscape:window-width="960"
     inkscape:window-height="1017"
     inkscape:window-x="952"
     inkscape:window-y="-8"
     inkscape:window-maximized="0"
     inkscape:current-layer="layer5" />
  <defs
     id="defs2" />
  <g
     inkscape:groupmode="layer"
     id="layer5"
     inkscape:label="Estrellas"
     transform="translate(-12.190298,-49.030323)">
    <path
       id="path2231"
       style="fill:#ffcc00;stroke-width:0.264583;fill-opacity:1"
       inkscape:transform-center-x="0.24676862"
       inkscape:transform-center-y="2.9130712"
       transform="matrix(0.47288286,0.03661593,-0.0480405,0.43083067,-60.311747,-76.802515)"
       d="m 439.79314,407.68128 -4.39373,47.66063 36.77081,30.63899 -46.68569,10.54926 -17.77661,44.43909 -24.45961,-41.14084 -47.75736,-3.17412 31.56882,-35.97569 -11.73906,-46.40081 43.97021,18.90664 z" />
    <path
       id="path2231-2"
       style="fill:#ffcc00;stroke-width:0.264583;fill-opacity:1"
       inkscape:transform-center-x="0.24676862"
       inkscape:transform-center-y="2.9130712"
       transform="matrix(0.47288286,0.03661593,-0.0480405,0.43083067,-92.00321,-37.987137)"
       d="m 439.79314,407.68128 -4.39373,47.66063 36.77081,30.63899 -46.68569,10.54926 -17.77661,44.43909 -24.45961,-41.14084 -47.75736,-3.17412 31.56882,-35.97569 -11.73906,-46.40081 43.97021,18.90664 z" />
  </g>
  <g
     inkscape:groupmode="layer"
     id="layer6"
     inkscape:label="Candado"
     transform="translate(-15.514925,-55.729452)">
    <path
       id="rect431-3"
       style="fill:#005222;stroke-width:0.113165"
       d="m 82.511695,76.56617 h 31.768645 c 5.21856,0 9.41978,4.20122 9.41978,9.419776 v 5.910444 c 0,5.218556 -4.20122,9.41978 -9.41978,9.41978 H 82.511695 c -5.218556,0 -9.419776,-4.201224 -9.419776,-9.41978 v -5.910444 c 0,-5.218556 4.20122,-9.419776 9.419776,-9.419776 z" />
    <path
       id="path2502"
       style="fill:none;stroke:#005222;stroke-width:9.25206"
       d="M 109.33064,78.223824 A 10.48028,17.868341 0 0 1 98.850365,96.092165 10.48028,17.868341 0 0 1 88.370085,78.223824 10.48028,17.868341 0 0 1 98.850365,60.355482 10.48028,17.868341 0 0 1 109.33064,78.223824 Z" />
  </g>
  <g
     inkscape:label="Circulo"
     inkscape:groupmode="layer"
     id="layer1"
     transform="translate(-15.514925,-56.787785)">
    <path
       id="path61"
       style="fill:#aa0000;stroke-width:0.346818"
       d="m 98.261186,92.890983 a 71.664177,71.664177 0 0 0 -71.66436,71.663947 71.664177,71.664177 0 0 0 71.66436,71.66436 71.664177,71.664177 0 0 0 71.664364,-71.66436 71.664177,71.664177 0 0 0 -71.664364,-71.663947 z m 0.04031,17.350397 11.996684,20.77865 11.99616,20.77806 h -11.20913 l 1.07694,1.865 14.02188,24.28637 h -10.73061 l 15.32826,26.54981 h -22.80636 v 9.28728 H 88.766675 v -9.28728 H 66.294661 L 81.622925,177.94946 H 70.09753 l 14.021366,-24.28637 1.076937,-1.865 h -10.88719 l 11.996683,-20.77806 z" />
  </g>
  <g
     inkscape:groupmode="layer"
     id="layer4"
     inkscape:label="Arbol"
     transform="translate(-15.514925,-56.787785)" />
  <g
     inkscape:groupmode="layer"
     id="layer3"
     inkscape:label="Rectangulo redondeado"
     transform="translate(-15.514925,-56.787785)">
    <path
       id="rect431"
       style="fill:#005222;stroke-width:0.264583"
       d="M 29.552238,223.6183 H 166.97013 c 7.77668,0 14.03732,6.26064 14.03732,14.03731 v 13.29851 c 0,7.77667 -6.26064,14.03731 -14.03732,14.03731 H 29.552238 c -7.776671,0 -14.037313,-6.26064 -14.037313,-14.03731 v -13.29851 c 0,-7.77667 6.260642,-14.03731 14.037313,-14.03731 z" />
  </g>
  <g
     inkscape:groupmode="layer"
     id="layer2"
     inkscape:label="Texto"
     style="fill:#ffffff"
     transform="translate(-15.514925,-58.375285)">
    <g
       aria-label="Amigo invisible"
       id="text169"
       style="font-size:19.7556px;stroke-width:0.264583">
      <path
         d="m 41.616956,253.77985 c 0.592668,0 1.442158,0.5334 1.442158,-4.74135 0,-9.1666 -5.096944,-11.99165 -5.748879,-11.99165 -0.869247,0 -6.73666,3.93137 -6.73666,12.38676 0,2.56823 0.276579,4.34624 1.284114,4.34624 h 2.825051 c 0.256823,0 0.375356,-0.0198 0.375356,-0.13829 0,-0.29634 -1.284114,-1.97556 -1.284114,-3.53626 0,-2.25213 2.864562,-2.56822 4.662322,-2.56822 0.889002,0 1.738493,0.33584 1.738493,1.22484 0,2.25214 -1.521181,4.2277 -1.521181,4.78086 0,0.29633 0.572912,0.23707 0.750712,0.23707 z m -4.227699,-13.35479 c 0.750713,0 2.212627,2.56823 2.212627,3.79308 0,0.55315 -0.316089,0.65193 -1.007535,0.65193 -1.738493,0 -3.654786,0.51365 -4.010387,0.51365 -0.237067,0 -0.375356,-0.13829 -0.375356,-0.37536 0,-1.44216 2.113849,-4.5833 3.180651,-4.5833 z"
         style="font-weight:500;font-family:'Hobo Std';-inkscape-font-specification:'Hobo Std Medium'"
         id="path285" />
      <path
         d="m 47.267056,253.77985 c 0.217312,0 0.572913,0.0593 0.572913,-0.27658 0,-0.55316 -0.553157,-1.30387 -0.553157,-5.27475 0,-2.94358 0.553157,-4.7611 2.034827,-4.7611 1.619959,0 1.619959,2.78554 1.619959,3.97088 0,1.87678 -0.750713,5.84766 -0.750713,6.14399 0,0.27658 0.31609,0.19756 0.691446,0.19756 h 1.778004 c 0.632179,0 0.730957,-0.0198 0.730957,-7.11202 0,-3.25967 0.651935,-3.20041 1.343381,-3.20041 0.750713,0 2.094094,0.39512 2.094094,4.16843 0,3.29919 -0.750713,5.47231 -0.750713,5.82791 0,0.3556 0.553157,0.31609 0.750713,0.31609 h 1.34338 c 0.572913,0 1.323626,0.67169 1.323626,-5.35377 0,-2.52872 0.07902,-7.28982 -3.556008,-7.28982 -0.711202,0 -1.323626,0.27658 -1.817516,0.55316 -0.49389,0.29633 -0.889002,0.3556 -1.16558,0.3556 -0.49389,0 -1.126069,-0.90876 -2.094094,-0.90876 -0.829735,0 -1.422403,0.21731 -1.857026,0.45438 -0.434623,0.21731 -0.711202,0.45438 -0.948269,0.45438 -0.197556,0 -0.395112,-0.13829 -0.395112,-0.33585 0,-0.27657 0.237067,-0.65193 0.237067,-0.889 0,-0.29633 -0.434623,-0.31609 -0.84949,-0.31609 -2.686762,0 -2.429939,-0.25682 -2.429939,8.06029 0,5.84766 0.414867,5.21548 1.086558,5.21548 z"
         style="font-weight:500;font-family:'Hobo Std';-inkscape-font-specification:'Hobo Std Medium'"
         id="path287" />
      <path
         d="m 63.703701,253.77985 c 0.454379,0 1.047047,0.11853 1.047047,-0.51365 0,-0.1778 -0.770468,-3.23992 -0.770468,-8.21833 0,-2.15336 0.237067,-2.88432 0.237067,-3.61527 0,-0.23707 -0.01976,-0.29634 -0.849491,-0.29634 h -1.086558 c -0.651935,0 -0.968024,-0.65193 -0.968024,6.10448 0,6.95397 0.07902,6.53911 1.047047,6.53911 z m -0.651934,-14.18452 c 0.790224,0 1.521181,-0.45438 1.521181,-1.30387 0,-0.84949 -0.730957,-1.36314 -1.521181,-1.36314 -0.790224,0 -1.521182,0.51365 -1.521182,1.36314 0,0.84949 0.730958,1.30387 1.521182,1.30387 z"
         style="font-weight:500;font-family:'Hobo Std';-inkscape-font-specification:'Hobo Std Medium'"
         id="path289" />
      <path
         d="m 71.2306,246.74685 c -1.16558,0 -1.916293,-0.84949 -1.916293,-2.01507 0,-1.26436 0.849491,-2.01507 1.916293,-2.01507 1.066803,0 1.916293,0.75071 1.916293,2.01507 0,1.26436 -0.84949,2.01507 -1.916293,2.01507 z m 0,-5.90692 c -2.64725,0 -4.247454,1.56069 -4.247454,4.14867 0,2.13361 1.422403,3.00286 1.422403,3.47699 0,0.55316 -2.252138,0.77047 -2.252138,3.08187 0,1.61996 1.284114,2.52872 2.844806,2.52872 0.750713,0 1.422404,-0.25682 2.054583,-0.49389 0.651935,-0.25682 1.264358,-0.49389 1.857026,-0.49389 1.106314,0 1.126069,0.98778 1.619959,0.98778 0.592668,0 1.382892,-2.21263 1.382892,-2.72627 0,-0.7112 -1.639714,-1.14583 -2.094093,-1.14583 -1.857027,0 -3.496741,0.98778 -4.326477,0.98778 -0.3556,0 -0.67169,-0.29633 -0.67169,-0.67169 0,-0.57291 1.323625,-1.2446 2.410183,-1.2446 2.943585,0 4.247454,-2.17312 4.247454,-4.2277 0,-2.1336 -1.007535,-2.52872 -1.007535,-3.12138 0,-1.02729 1.83727,-0.43463 1.83727,-1.02729 0,-0.31609 -1.086558,-1.71874 -1.619959,-1.71874 -0.790224,0 -1.323625,1.81751 -2.232383,1.81751 -0.05927,0 -0.197556,-0.0395 -0.395112,-0.079 -0.217311,-0.0395 -0.49389,-0.079 -0.829735,-0.079 z"
         style="font-weight:500;font-family:'Hobo Std';-inkscape-font-specification:'Hobo Std Medium'"
         id="path291" />
      <path
         d="m 82.017152,254.07618 c 2.271894,0 4.958656,-1.99532 4.958656,-6.63788 0,-3.18065 -1.521181,-6.59837 -4.958656,-6.59837 -3.437474,0 -4.958655,3.41772 -4.958655,6.59837 0,4.64256 2.686761,6.63788 4.958655,6.63788 z m 0,-3.29919 c -1.995315,0 -2.508961,-2.25213 -2.508961,-3.83258 0,-1.56069 0.553157,-3.77332 2.508961,-3.77332 1.955805,0 2.508961,2.21263 2.508961,3.77332 0,1.58045 -0.513645,3.83258 -2.508961,3.83258 z"
         style="font-weight:500;font-family:'Hobo Std';-inkscape-font-specification:'Hobo Std Medium'"
         id="path293" />
      <path
         d="m 96.419014,253.77985 c 0.454379,0 1.047047,0.11853 1.047047,-0.51365 0,-0.1778 -0.770468,-3.23992 -0.770468,-8.21833 0,-2.15336 0.237067,-2.88432 0.237067,-3.61527 0,-0.23707 -0.01976,-0.29634 -0.849491,-0.29634 h -1.086558 c -0.651935,0 -0.968024,-0.65193 -0.968024,6.10448 0,6.95397 0.07902,6.53911 1.047047,6.53911 z M 95.76708,239.59533 c 0.790224,0 1.521181,-0.45438 1.521181,-1.30387 0,-0.84949 -0.730957,-1.36314 -1.521181,-1.36314 -0.790224,0 -1.521182,0.51365 -1.521182,1.36314 0,0.84949 0.730958,1.30387 1.521182,1.30387 z"
         style="font-weight:500;font-family:'Hobo Std';-inkscape-font-specification:'Hobo Std Medium'"
         id="path295" />
      <path
         d="m 107.08705,253.77985 c 0.67169,0 1.28412,0.39511 1.28412,-7.36884 0,-5.19573 -2.29165,-5.27475 -2.84481,-5.27475 -1.26436,0 -2.17311,0.80998 -2.50896,0.80998 -0.19756,0 -0.29633,-0.1778 -0.29633,-0.37535 0,-0.27658 0.1778,-0.51365 0.1778,-0.71121 0,-0.45437 -0.71121,-0.3556 -1.40265,-0.3556 -1.521182,0 -2.212628,-0.55315 -2.212628,8.39613 0,5.21548 0.296334,4.87964 1.027288,4.87964 h 1.67923 c 0.19755,0 0.5334,0.0197 0.5334,-0.25683 0,-0.23706 -0.57291,-3.27943 -0.57291,-5.6501 0,-3.91161 1.54093,-4.4055 2.29165,-4.4055 1.34338,0 1.46191,1.75825 1.46191,3.1609 0,4.01039 -1.00753,6.63788 -1.00753,6.83544 0,0.37535 0.43462,0.31609 0.69144,0.31609 z"
         style="font-weight:500;font-family:'Hobo Std';-inkscape-font-specification:'Hobo Std Medium'"
         id="path297" />
      <path
         d="m 116.92534,241.13626 c -0.39511,0 -0.59267,-0.0395 -0.59267,0.41487 0,0.61242 0.11854,1.16558 0.11854,1.85703 0,3.85234 -1.28412,6.55886 -1.97556,6.55886 -0.45438,0 -1.89654,-1.9163 -1.89654,-6.77618 0,-0.86924 0.0988,-1.28411 0.0988,-1.73849 0,-0.41487 -0.57291,-0.31609 -0.84949,-0.31609 h -1.52118 c -0.53341,0 -0.61243,0.0395 -0.61243,0.61243 0,9.00855 3.97088,12.32749 4.42526,12.32749 0.65193,0 4.9389,-3.5165 4.9389,-11.81385 0,-1.12607 -0.13829,-1.12607 -0.82974,-1.12607 z"
         style="font-weight:500;font-family:'Hobo Std';-inkscape-font-specification:'Hobo Std Medium'"
         id="path299" />
      <path
         d="m 122.77302,253.77985 c 0.45438,0 1.04705,0.11853 1.04705,-0.51365 0,-0.1778 -0.77047,-3.23992 -0.77047,-8.21833 0,-2.15336 0.23706,-2.88432 0.23706,-3.61527 0,-0.23707 -0.0198,-0.29634 -0.84949,-0.29634 h -1.08655 c -0.65194,0 -0.96803,-0.65193 -0.96803,6.10448 0,6.95397 0.079,6.53911 1.04705,6.53911 z m -0.65194,-14.18452 c 0.79023,0 1.52118,-0.45438 1.52118,-1.30387 0,-0.84949 -0.73095,-1.36314 -1.52118,-1.36314 -0.79022,0 -1.52118,0.51365 -1.52118,1.36314 0,0.84949 0.73096,1.30387 1.52118,1.30387 z"
         style="font-weight:500;font-family:'Hobo Std';-inkscape-font-specification:'Hobo Std Medium'"
         id="path301" />
      <path
         d="m 129.66774,254.07618 c 2.37067,0 4.50427,-1.46191 4.50427,-4.03014 0,-4.01039 -5.76863,-3.97088 -5.76863,-6.0057 0,-0.59267 0.82973,-0.86925 1.44216,-0.86925 1.81751,0 1.93605,1.52118 2.44969,1.52118 0.45438,0 1.5607,-1.6002 1.5607,-1.97556 0,-0.39511 -1.36314,-1.87678 -3.83259,-1.87678 -2.13361,0 -4.06965,1.30387 -4.06965,3.71405 0,3.93137 5.33401,3.39796 5.33401,5.43279 0,1.00754 -0.94827,1.4224 -1.75825,1.4224 -2.8053,0 -3.29919,-2.98309 -3.39796,-2.98309 -0.15805,0 -0.63218,1.18533 -0.63218,2.11385 0,2.3114 2.07433,3.53625 4.16843,3.53625 z"
         style="font-weight:500;font-family:'Hobo Std';-inkscape-font-specification:'Hobo Std Medium'"
         id="path303" />
      <path
         d="m 138.24167,253.77985 c 0.45438,0 1.04705,0.11853 1.04705,-0.51365 0,-0.1778 -0.77047,-3.23992 -0.77047,-8.21833 0,-2.15336 0.23706,-2.88432 0.23706,-3.61527 0,-0.23707 -0.0198,-0.29634 -0.84949,-0.29634 h -1.08655 c -0.65194,0 -0.96803,-0.65193 -0.96803,6.10448 0,6.95397 0.079,6.53911 1.04705,6.53911 z m -0.65194,-14.18452 c 0.79023,0 1.52119,-0.45438 1.52119,-1.30387 0,-0.84949 -0.73096,-1.36314 -1.52119,-1.36314 -0.79022,0 -1.52118,0.51365 -1.52118,1.36314 0,0.84949 0.73096,1.30387 1.52118,1.30387 z"
         style="font-weight:500;font-family:'Hobo Std';-inkscape-font-specification:'Hobo Std Medium'"
         id="path305" />
      <path
         d="m 145.31419,250.48066 c -0.51365,0 -1.52118,0.079 -1.52118,-4.18819 0,-2.88431 0.27658,-3.57576 1.67922,-3.57576 0.82974,0 2.23239,0.79022 2.23239,4.03014 0,1.46192 -0.45438,3.73381 -2.39043,3.73381 z m -3.37821,-13.55234 c -0.889,0 -0.80998,8.85051 -0.80998,9.77902 0,0.45438 -0.079,7.07251 0.61243,7.07251 h 3.49674 c 1.50142,0 2.54847,-0.86925 3.12138,-1.54094 1.44216,-1.63972 2.01507,-3.45723 2.01507,-5.72912 0,-4.16844 -2.35091,-5.66986 -4.03014,-5.66986 -0.41487,0 -0.80998,0.13829 -1.14582,0.23707 -0.31609,0.11853 -0.59267,0.21731 -0.80998,0.21731 -0.37536,0 -0.43463,-0.31609 -0.43463,-0.63218 0,-1.16558 0.59267,-3.14114 0.59267,-3.29919 0,-0.43462 -0.47413,-0.43462 -0.7112,-0.43462 z"
         style="font-weight:500;font-family:'Hobo Std';-inkscape-font-specification:'Hobo Std Medium'"
         id="path307" />
      <path
         d="m 154.5598,253.77985 c 0.21731,0 0.73095,0.0988 0.73095,-0.23707 0,-0.25682 -0.75071,-2.92383 -0.75071,-8.35662 0,-4.91914 0.82974,-7.76395 0.82974,-7.88248 0,-0.43463 -0.59267,-0.37536 -0.80998,-0.37536 h -1.87678 c -0.88901,0 -0.80998,8.85051 -0.80998,9.77902 0,0.45438 -0.079,7.07251 0.61242,7.07251 z"
         style="font-weight:500;font-family:'Hobo Std';-inkscape-font-specification:'Hobo Std Medium'"
         id="path309" />
      <path
         d="m 161.2767,254.07618 c 2.37067,0 4.30672,-1.44216 4.30672,-3.95112 0,-0.15804 -0.0593,-1.18534 -0.3556,-1.18534 -0.27658,0 -0.27658,2.46945 -3.5165,2.46945 -0.98778,0 -2.4892,-0.67169 -2.4892,-1.6002 0,-2.05458 6.3613,-1.16558 6.3613,-5.41303 0,-2.33116 -1.83727,-3.55601 -4.01039,-3.55601 -2.64725,0 -5.2945,2.37067 -5.2945,7.15153 0,3.16089 1.46192,6.08472 4.99817,6.08472 z m 0.19756,-10.90509 c 0.75071,0 1.65947,0.5334 1.65947,1.50142 0,1.00754 -3.59552,1.79776 -3.83259,1.79776 -0.25682,0 -0.3556,-0.21731 -0.3556,-0.43462 0,-1.14582 0.92851,-2.86456 2.52872,-2.86456 z"
         style="font-weight:500;font-family:'Hobo Std';-inkscape-font-specification:'Hobo Std Medium'"
         id="path311" />
    </g>
  </g>
</svg>
