<?xml version="1.0" encoding="UTF-8" standalone="no"?>
<!-- Created with Inkscape (http://www.inkscape.org/) -->

<svg
   width="112.3363mm"
   height="121.49035mm"
   viewBox="0 0 112.3363 121.49035"
   version="1.1"
   id="svg5"
   sodipodi:docname="logotipo vectores.svg"
   inkscape:version="1.2 (dc2aedaf03, 2022-05-15)"
   xmlns:inkscape="http://www.inkscape.org/namespaces/inkscape"
   xmlns:sodipodi="http://sodipodi.sourceforge.net/DTD/sodipodi-0.dtd"
   xmlns:xlink="http://www.w3.org/1999/xlink"
   xmlns="http://www.w3.org/2000/svg"
   xmlns:svg="http://www.w3.org/2000/svg">
  <sodipodi:namedview
     id="namedview7"
     pagecolor="#ffffff"
     bordercolor="#000000"
     borderopacity="0.25"
     inkscape:showpageshadow="2"
     inkscape:pageopacity="0.0"
     inkscape:pagecheckerboard="0"
     inkscape:deskcolor="#d1d1d1"
     inkscape:document-units="mm"
     showgrid="false"
     inkscape:zoom="0.63877417"
     inkscape:cx="223.86628"
     inkscape:cy="464.95305"
     inkscape:window-width="1920"
     inkscape:window-height="1017"
     inkscape:window-x="1358"
     inkscape:window-y="-8"
     inkscape:window-maximized="1"
     inkscape:current-layer="layer1"
     showguides="false" />
  <defs
     id="defs2">
    <linearGradient
       inkscape:collect="always"
       id="linearGradient32734">
      <stop
         style="stop-color:#000fb8;stop-opacity:1;"
         offset="0"
         id="stop32730" />
      <stop
         style="stop-color:#000000;stop-opacity:0;"
         offset="1"
         id="stop32732" />
    </linearGradient>
    <linearGradient
       inkscape:collect="always"
       id="linearGradient32661">
      <stop
         style="stop-color:#00ffff;stop-opacity:1;"
         offset="0"
         id="stop32657" />
      <stop
         style="stop-color:#00ffff;stop-opacity:0;"
         offset="1"
         id="stop32659" />
    </linearGradient>
    <linearGradient
       id="linearGradient26429"
       inkscape:swatch="solid">
      <stop
         style="stop-color:#000000;stop-opacity:1;"
         offset="0"
         id="stop26427" />
    </linearGradient>
    <linearGradient
       inkscape:collect="always"
       id="linearGradient25697">
      <stop
         style="stop-color:#895d00;stop-opacity:1;"
         offset="0"
         id="stop25693" />
      <stop
         style="stop-color:#ffd938;stop-opacity:1;"
         offset="1"
         id="stop25695" />
    </linearGradient>
    <linearGradient
       inkscape:collect="always"
       id="linearGradient24929">
      <stop
         style="stop-color:#895d00;stop-opacity:1;"
         offset="0"
         id="stop24925" />
      <stop
         style="stop-color:#ffd938;stop-opacity:0.71052629;"
         offset="1"
         id="stop24927" />
    </linearGradient>
    <linearGradient
       inkscape:collect="always"
       id="linearGradient1610">
      <stop
         style="stop-color:#007dc1;stop-opacity:1;"
         offset="0"
         id="stop1606" />
      <stop
         style="stop-color:#004971;stop-opacity:1;"
         offset="1"
         id="stop1608" />
    </linearGradient>
    <radialGradient
       inkscape:collect="always"
       xlink:href="#linearGradient1610"
       id="radialGradient1612"
       cx="46.15995"
       cy="15.147414"
       fx="46.15995"
       fy="15.147414"
       r="7.2760682"
       gradientTransform="matrix(0.27792079,2.5136493,-1.3227693,0.14625155,53.367674,-103.09786)"
       gradientUnits="userSpaceOnUse" />
    <radialGradient
       inkscape:collect="always"
       xlink:href="#linearGradient24929"
       id="radialGradient24933-7"
       cx="101.56828"
       cy="74.231186"
       fx="101.56828"
       fy="74.231186"
       r="67.693085"
       gradientTransform="matrix(1,0,0,0.48806817,0,38.001309)"
       gradientUnits="userSpaceOnUse" />
    <radialGradient
       inkscape:collect="always"
       xlink:href="#linearGradient25697"
       id="radialGradient26425"
       gradientUnits="userSpaceOnUse"
       gradientTransform="matrix(1.0610788,0,0,0.48758696,-10.040128,41.741197)"
       cx="101.56828"
       cy="74.231186"
       fx="101.56828"
       fy="74.231186"
       r="67.693085" />
    <radialGradient
       inkscape:collect="always"
       xlink:href="#linearGradient25697"
       id="radialGradient26425-8"
       gradientUnits="userSpaceOnUse"
       gradientTransform="matrix(1,0,0,0.48806817,0.26458333,41.705476)"
       cx="101.56828"
       cy="74.231186"
       fx="101.56828"
       fy="74.231186"
       r="67.693085" />
    <radialGradient
       inkscape:collect="always"
       xlink:href="#linearGradient25697"
       id="radialGradient27918"
       gradientUnits="userSpaceOnUse"
       gradientTransform="matrix(0.90945721,0,0,0.57216576,3.0791341,31.646066)"
       cx="101.56828"
       cy="74.231186"
       fx="101.56828"
       fy="74.231186"
       r="67.693085" />
    <linearGradient
       inkscape:collect="always"
       xlink:href="#linearGradient32661"
       id="linearGradient32663"
       x1="43.264465"
       y1="66.781693"
       x2="43.264465"
       y2="93.348282"
       gradientUnits="userSpaceOnUse" />
    <linearGradient
       inkscape:collect="always"
       xlink:href="#linearGradient32734"
       id="linearGradient32736"
       x1="55.088058"
       y1="51.876514"
       x2="55.088058"
       y2="71.645996"
       gradientUnits="userSpaceOnUse" />
  </defs>
  <g
     inkscape:groupmode="layer"
     id="layer2"
     inkscape:label="barca"
     transform="translate(-19.727189,-8.4666665)">
    <g
       id="g29461"
       transform="matrix(0.78317339,0,0,0.79324242,-0.58674127,18.054055)">
      <path
         id="path21248"
         style="font-variation-settings:normal;opacity:1;vector-effect:none;fill:url(#radialGradient27918);fill-opacity:1;stroke:#b88900;stroke-width:2.22309;stroke-linecap:round;stroke-linejoin:round;stroke-miterlimit:4;stroke-dasharray:none;stroke-dashoffset:0;stroke-opacity:1;-inkscape-stroke:none;stop-color:#000000;stop-opacity:1"
         inkscape:transform-center-x="-8.1429409"
         inkscape:transform-center-y="6.1893303"
         d="m 27.411443,69.72276 -0.07232,62.52702 C 52.790604,123.61874 128.28963,102.47711 127.42591,91.886873 126.61347,81.925071 57.393233,71.583853 27.411443,69.72276 Z"
         sodipodi:nodetypes="ccsc" />
      <path
         id="path8403"
         style="fill:url(#radialGradient26425);fill-opacity:1;stroke:#b88900;stroke-width:2.21668;stroke-linecap:round;stroke-linejoin:round;stroke-dasharray:none;stroke-opacity:1"
         inkscape:transform-center-x="-13.782506"
         d="M 27.046312,109.86621 27.54788,44.946249 c 0,0 153.78883,0.867791 139.82844,25.36638 C 153.41593,94.811218 27.046312,109.86621 27.046312,109.86621 Z"
         sodipodi:nodetypes="cczc"
         inkscape:transform-center-y="2.5409168" />
    </g>
  </g>
  <g
     inkscape:groupmode="layer"
     id="layer5"
     inkscape:label="vela"
     style="display:none"
     transform="translate(-19.727189,-8.4666665)">
    <path
       id="path8403-9"
       style="fill:#00d1d1;stroke:#000000;stroke-width:2.153;stroke-linecap:round;stroke-linejoin:round;stroke-dasharray:none;stroke-opacity:1"
       inkscape:transform-center-x="-12.044066"
       d="m 100.12331,155.37046 31.45214,-62.032567 c 0,0 108.75687,19.800207 103.07003,31.016287 -5.68686,11.21609 -134.52217,31.01628 -134.52217,31.01628 z"
       sodipodi:nodetypes="cczc"
       inkscape:transform-center-y="-5.6472058e-06" />
  </g>
  <g
     inkscape:label="botella"
     inkscape:groupmode="layer"
     id="layer1"
     transform="translate(-19.727189,-8.4666665)">
    <g
       id="g67326"
       style="display:inline"
       inkscape:label="botella en si">
      <path
         id="rect322"
         style="fill:#0088d1;stroke-width:0.264583"
         d="M 25.548388,23.064516 H 61.032259 V 93.677423 H 25.548388 Z" />
      <path
         id="rect64046"
         style="fill:#005f92;stroke-width:16.0925;stroke-linecap:round;stroke-linejoin:round"
         transform="matrix(0.47112092,-0.88206863,0,1,0,0)"
         d="m 129.53149,137.3205 h 9.12607 v 70.61604 h -9.12607 z" />
      <path
         id="rect63266"
         style="fill:#4bc0ff;stroke-width:17.5024;stroke-linecap:round;stroke-linejoin:round"
         transform="matrix(1,0,-0.46912591,0.8831313,0,0)"
         d="m 37.754463,16.999737 h 35.550869 v 9.115292 H 37.754463 Z" />
    </g>
    <g
       aria-label="A"
       transform="scale(1.1073092,0.90309012)"
       id="text378"
       style="font-size:27.4289px;font-family:Mistral;-inkscape-font-specification:Mistral;baseline-shift:baseline;display:inline;opacity:1;fill:#000fb8;stroke-width:1.36044;stroke-linecap:round;stroke-linejoin:round;stop-color:#000000;stop-opacity:1"
       inkscape:label="textoDentro">
      <path
         d="m 34.089973,47.500806 q -0.04018,-0.147323 -0.04018,-0.241074 -0.01339,-0.09375 -0.01339,-0.160716 0,-0.44197 0.107144,-0.750009 0.107144,-0.321433 0.321433,-0.535721 0.05357,-0.05357 0.26786,-0.160716 0.227681,-0.107144 0.589293,-0.254468 0.254467,-0.120537 0.40179,-0.281253 0.160717,-0.174109 0.17411,-0.415184 0.04018,-0.187502 0.160716,-0.428576 0.120537,-0.241074 0.281253,-0.522328 0.05357,-0.08036 0.321433,-0.924118 0.26786,-0.84376 0.750008,-2.477708 0.133931,-0.495542 0.267861,-0.857153 0.13393,-0.361612 0.227681,-0.616079 0.428577,-1.138407 0.696437,-1.486625 0.281253,-0.361612 0.415184,-0.589293 v -0.06697 l -0.415184,-0.656258 0.522328,-0.602686 0.669651,-0.13393 q 0.200895,-0.02679 0.361611,-0.375004 0.174109,-0.348219 0.589293,-0.763402 0.09375,-0.02679 0.294646,-0.160716 0.214289,-0.147324 0.535721,-0.401791 0.281253,-0.227681 0.482149,-0.334825 0.200895,-0.107145 0.308039,-0.107145 0.361611,0 0.522328,0.147324 0.160716,0.147323 0.160716,0.388397 0,0.294647 -0.30804,0.857153 -0.308039,0.562507 -0.308039,0.857153 0,0.133931 0.05357,0.227682 0.06697,0.08036 0.147323,0.107144 l 1.607162,0.870546 q 0.133931,0.05357 0.241075,0.428577 0.107144,0.361611 0.174109,1.004476 0.08036,0.535721 0.120537,0.897332 0.05357,0.348218 0.05357,0.562507 -0.09375,0.5759 -0.187502,1.165192 0.13393,0.750009 0.294646,1.580376 -0.08036,0.790188 -0.174109,1.607162 0,0.08036 0.02679,0.147324 0.04018,0.05357 0.107144,0.06696 0.227682,0.01339 0.334826,0.120537 0.120537,0.107144 0.120537,0.294646 0,0.241075 -0.08036,0.388398 -0.06696,0.13393 -0.200896,0.214288 -0.174109,0.107144 -0.281253,0.187502 -0.09375,0.08036 -0.13393,0.13393 l 0.174109,0.830368 -0.241074,1.901808 q 0,0.241074 -0.04018,0.616079 -0.04018,0.375004 -0.120537,0.870546 -0.133931,0.361611 -0.200896,0.602686 -0.06697,0.241074 -0.06697,0.321432 0.06697,0.227681 0.120537,0.482149 -0.08036,0.361611 -0.174109,0.723223 -0.08036,0.361611 -0.160716,0.70983 -0.147323,0.468755 -0.388397,0.683044 -0.241075,0.227681 -0.562507,0.227681 -0.174109,0 -0.267861,-0.160716 -0.08036,-0.147324 -0.08036,-0.455363 0,-0.13393 0.04018,-0.388397 0.05357,-0.254468 0.05357,-0.388398 0,-0.09375 -0.02679,-0.254467 -0.02679,-0.160717 -0.02679,-0.281254 0,-0.375004 0.06696,-1.191978 0.08036,-0.830367 0.08036,-1.245551 -0.06697,-0.227681 -0.133931,-0.468755 0.04018,-0.254468 0.05357,-0.508935 0.01339,-0.26786 -0.01339,-0.495542 l 0.200896,-0.361611 -0.17411,-1.245551 -0.09375,-0.04018 q -0.08036,0 -0.241074,0.06697 -0.147323,0.05357 -0.375004,0.187502 -0.160717,0.05357 -0.508935,0.120538 -0.334826,0.05357 -0.897332,0.06697 -0.241075,0.120537 -0.455363,0.214288 -0.308039,0.06697 -0.776795,0.241074 -0.468756,0.160716 -1.084834,0.401791 -0.361612,0.174109 -0.669651,0.281253 -0.294647,0.09375 -0.495542,0.09375 -0.160716,0 -0.26786,0.120537 -0.107144,0.120538 -0.174109,0.348219 -0.04018,0.214288 -0.200896,0.589293 -0.147323,0.375004 -0.40179,0.937511 -0.05357,0.147323 -0.147323,0.455362 -0.09375,0.30804 -0.214289,0.763402 -0.08036,0.17411 -0.187502,0.44197 -0.107144,0.254467 -0.241074,0.602686 0,0.160716 -0.04018,0.40179 -0.02679,0.227682 -0.09375,0.535721 -0.06697,0.187502 -0.187503,0.468756 -0.107144,0.294646 -0.281253,0.642865 -0.107144,0.214288 -0.308039,0.308039 -0.200896,0.107144 -0.522328,0.107144 -0.227681,0 -0.348219,-0.160716 -0.13393,-0.147323 -0.13393,-0.468756 0,-0.348218 0.08036,-0.803581 0.08036,-0.441969 0.254468,-0.97769 0.187502,-0.70983 0.321432,-1.1518 0.13393,-0.441969 0.147323,-0.656257 0.04018,-0.09375 0.120537,-0.334826 0.08036,-0.241074 0.187503,-0.589293 0.120537,-0.334825 0.227681,-0.763402 l -0.06697,-0.107144 -0.428577,0.06697 q -0.147323,-0.01339 -0.214288,-0.120537 -0.06696,-0.107144 -0.06696,-0.281253 0,-0.09375 0.02679,-0.200895 0.02679,-0.120538 0.08036,-0.281254 z m 4.861665,-2.464315 q 0.30804,0 0.910726,-0.147323 0.602685,-0.147323 0.910725,-0.147323 0.187502,0.04018 0.375004,0.06697 0.334826,-0.06697 0.656258,-0.147324 0.321433,-0.09375 0.656258,-0.160716 0.13393,-0.02679 0.200895,-0.09375 0.06696,-0.08036 0.06696,-0.200895 -0.02679,-0.401791 -0.02679,-0.549114 0,-0.254467 0.02679,-0.562507 0.04018,-0.321432 0.107145,-0.656257 l -0.160717,-0.602686 0.05357,-0.549114 q -0.05357,-0.294646 -0.09375,-0.549114 -0.02679,-0.26786 0,-0.441969 -0.02679,-0.05357 -0.09375,-0.174109 -0.06697,-0.120538 -0.147323,-0.254468 -0.13393,-0.227681 -0.281253,-0.428576 -0.133931,-0.214289 -0.267861,-0.428577 -0.187502,-0.254467 -0.40179,-0.375004 -0.214289,-0.120538 -0.44197,-0.120538 -0.26786,0 -0.549114,0.428577 -0.281253,0.428577 -0.522327,1.299123 -0.04018,0.107144 -0.227682,0.441969 -0.174109,0.334826 -0.508934,0.870546 -0.05357,0.508935 -0.361612,1.272337 -0.308039,0.750009 -0.857153,1.767878 -0.06697,0.09375 -0.08036,0.160717 0,0.06697 0,0.147323 0,0.09375 0.04018,0.147323 0.05357,0.04018 0.147323,0.04018 0.133931,0 0.428577,-0.02679 0.308039,-0.02679 0.441969,-0.02679 z"
         style="baseline-shift:baseline;stop-color:#000000;stop-opacity:1"
         id="path833" />
    </g>
    <path
       id="path33394"
       style="fill:url(#linearGradient32663);fill-opacity:1;stroke:url(#linearGradient32736);stroke-width:1.209;stroke-linecap:round;stroke-linejoin:round;stroke-dasharray:none"
       d="m 31.664969,77.402661 c 0,-7.60146 8.64985,-13.88275 11.70293,-25.27699 3.04586,11.36733 11.72016,17.67553 11.72016,25.27699 0,7.60146 -5.24344,13.76366 -11.71154,13.76366 -6.46811,0 -11.71155,-6.16219 -11.71155,-13.76366 z"
       sodipodi:nodetypes="zcssz"
       inkscape:label="gota" />
    <g
       aria-label="CALA CORTINA"
       transform="matrix(1.062314,-0.30471181,0.24948561,0.86977936,0,0)"
       id="text29522"
       style="font-size:11.3709px;font-family:Mistral;-inkscape-font-specification:Mistral;opacity:1;fill:#0088d1;stroke:#000fb8;stroke-width:0.564;stroke-linecap:round;stroke-linejoin:round;stop-color:#000000;stop-opacity:1">
      <path
         d="m -3.0539779,145.57269 q -0.1665659,0.1277 -0.4164148,0.29427 -0.2442967,0.16657 -0.5774285,0.36644 -0.2998187,0.17212 -0.533011,0.29982 -0.2276401,0.12215 -0.3831016,0.18323 -0.2276401,0.10549 -0.4830412,0.14991 -0.255401,0.05 -0.5219065,0.05 -0.083283,0 -0.1887747,-0.0278 -0.09994,-0.0222 -0.2165357,-0.0555 -0.1443572,-0.0389 -0.2442967,-0.0666 -0.09994,-0.0278 -0.1665659,-0.0333 l -0.066626,-0.0666 -0.1610137,-0.0222 q -0.1054918,-0.006 -0.2554011,-0.10549 -0.1443571,-0.0999 -0.3164752,-0.27761 -0.166566,-0.16657 -0.2720577,-0.31648 -0.09994,-0.14991 -0.1443571,-0.27206 l -0.1499094,-0.47749 q -0.077731,-0.24429 -0.1165961,-0.3942 -0.038865,-0.14991 -0.033313,-0.19433 l 0.061074,-0.24985 q -0.044418,-0.1277 -0.072179,-0.21098 -0.022209,-0.0833 -0.022209,-0.1277 0,-0.0444 0.027761,-0.27206 0.027761,-0.22764 0.077731,-0.63295 0.038865,-0.0777 0.083283,-0.18877 0.044418,-0.11105 0.083283,-0.24985 l -0.016657,-0.12215 q 0,-0.0444 0.016657,-0.0999 0.022209,-0.0611 0.055522,-0.13325 0.1277005,-0.27206 0.255401,-0.54967 0.1277006,-0.27761 0.2554011,-0.53857 0.111044,-0.19987 0.2831621,-0.41086 0.1776703,-0.21098 0.4053104,-0.43862 0.04997,-0.0555 0.1221483,-0.14436 0.072179,-0.0888 0.1721181,-0.19433 0.094387,-0.0555 0.2276401,-0.16656 0.138805,-0.1166 0.3275797,-0.29427 0.055522,-0.0222 0.1332527,-0.0611 0.077731,-0.0389 0.1887747,-0.0944 0.027761,-0.0167 0.066626,-0.0555 0.044418,-0.0389 0.09994,-0.0833 0.061074,-0.0555 0.4441758,-0.16657 0.3831017,-0.11104 0.4996978,-0.11104 0.2554011,0 0.4330714,0.0389 0.1776703,0.0333 0.2831621,0.11105 l 0.1776703,0.0333 q 0.2220879,0.05 0.3275796,0.33868 0.1054918,0.28872 0.1054918,0.83283 0,0.2554 -0.00555,0.41086 -0.00555,0.14991 -0.016657,0.20544 -0.033313,0.16656 -0.077731,0.42196 -0.038865,0.24985 -0.1054917,0.58298 -0.00555,0.0888 -0.077731,0.29427 -0.066626,0.19988 -0.1776703,0.4997 -0.1165962,0.32758 -0.1998791,0.4997 -0.083283,0.16656 -0.138805,0.18322 -0.2220879,0.0555 -0.4774889,0.12215 -0.1221484,0 -0.1721181,-0.0167 -0.04997,-0.0222 -0.04997,-0.0666 0,-0.0389 0.016657,-0.12214 0.022209,-0.0833 0.022209,-0.1166 -0.016657,-0.21098 -0.033313,-0.42752 0,-0.0777 0.044418,-0.30537 0.044417,-0.22764 0.1332527,-0.58298 0.094387,-0.38866 0.1665659,-0.61074 0.072179,-0.22764 0.1165962,-0.28317 0.1610137,-0.1499 0.2331922,-0.28316 0.077731,-0.1388 0.077731,-0.24985 0,-0.15546 -0.077731,-0.27205 -0.072179,-0.1166 -0.2220879,-0.17767 -0.1443571,-0.0333 -0.2942664,-0.0611 -0.1443571,-0.0333 -0.2887143,-0.0777 -0.1165961,0.0444 -0.2109835,0.0666 -0.088835,0.0222 -0.1554615,0.0389 -0.3719972,0.0611 -0.7162335,0.34424 -0.338684,0.28316 -0.649607,0.78286 -0.2554011,0.43307 -0.4108626,0.87169 -0.1554616,0.43307 -0.2109835,0.8717 -0.022209,0.13325 -0.055522,0.33313 -0.033313,0.19433 -0.094387,0.46083 0.04997,0.16657 0.088835,0.30537 l -0.055522,0.50525 q 0,0.0278 0.04997,0.1166 0.04997,0.0833 0.1554615,0.24985 0.061074,0.0944 0.111044,0.22209 0.04997,0.1277 0.077731,0.28871 0.011104,0.0389 0.038865,0.0833 0.033313,0.0444 0.072179,0.0722 0.083283,0.0722 0.1610137,0.1277 0.2387445,0.2554 0.50525,0.38866 0.2720576,0.1277 0.5774285,0.1277 0.027761,0 0.2054313,-0.0278 0.1832225,-0.0278 0.4996977,-0.0888 0.055522,-0.0389 0.1443572,-0.0777 0.094387,-0.0389 0.2220879,-0.0833 0.1110439,-0.11105 0.2220879,-0.15546 0.1110439,-0.05 0.2054313,-0.05 0.027761,-0.0389 0.066626,-0.0944 0.044418,-0.0555 0.111044,-0.12215 0.1665659,-0.0666 0.3053708,-0.17212 0.138805,-0.11104 0.2665055,-0.2554 0.2220879,0.48304 0.2220879,0.5108 z"
         id="path836" />
      <path
         d="m -3.2427527,144.55109 q -0.016657,-0.0611 -0.016657,-0.0999 -0.00555,-0.0389 -0.00555,-0.0666 0,-0.18322 0.044418,-0.31092 0.044418,-0.13325 0.1332528,-0.22209 0.022209,-0.0222 0.1110439,-0.0666 0.094387,-0.0444 0.2442967,-0.1055 0.1054917,-0.05 0.1665659,-0.11659 0.066626,-0.0722 0.072179,-0.17212 0.016657,-0.0777 0.066626,-0.17767 0.04997,-0.0999 0.1165962,-0.21654 0.022209,-0.0333 0.1332527,-0.3831 0.111044,-0.34979 0.3109231,-1.02715 0.055522,-0.20544 0.1110439,-0.35535 0.055522,-0.1499 0.094387,-0.2554 0.1776703,-0.47193 0.2887142,-0.61629 0.1165962,-0.14991 0.1721181,-0.2443 v -0.0278 l -0.1721181,-0.27206 0.2165357,-0.24984 0.2776099,-0.0555 q 0.083283,-0.0111 0.14990932,-0.15546 0.0721786,-0.14435 0.24429669,-0.31647 0.0388654,-0.0111 0.12214834,-0.0666 0.0888352,-0.0611 0.22208789,-0.16657 0.11659615,-0.0944 0.19987911,-0.1388 0.08328296,-0.0444 0.12770053,-0.0444 0.14990933,0 0.2165357,0.0611 0.0666264,0.0611 0.0666264,0.16101 0,0.12215 -0.12770054,0.35534 -0.12770054,0.23319 -0.12770054,0.35534 0,0.0555 0.0222088,0.0944 0.027761,0.0333 0.0610742,0.0444 l 0.66626368,0.36089 q 0.055522,0.0222 0.0999396,0.17767 0.044418,0.14991 0.072178,0.41641 0.033313,0.22209 0.04997,0.372 0.022209,0.14436 0.022209,0.23319 -0.038865,0.23875 -0.077731,0.48304 0.055522,0.31093 0.1221484,0.65516 -0.033313,0.32758 -0.072179,0.66627 0,0.0333 0.011104,0.0611 0.016657,0.0222 0.044418,0.0278 0.094387,0.006 0.1388049,0.05 0.04997,0.0444 0.04997,0.12215 0,0.0999 -0.033313,0.16101 -0.027761,0.0555 -0.083283,0.0888 -0.072179,0.0444 -0.1165961,0.0777 -0.038865,0.0333 -0.055522,0.0555 l 0.072179,0.34424 -0.09994,0.78841 q 0,0.0999 -0.016657,0.2554 -0.016657,0.15546 -0.04997,0.36089 -0.055522,0.14991 -0.083283,0.24985 -0.027761,0.0999 -0.027761,0.13326 0.027761,0.0944 0.0499698,0.19988 -0.0333132,0.1499 -0.0721786,0.29981 -0.0333132,0.14991 -0.0666264,0.29427 -0.0610742,0.19433 -0.16101372,0.28316 -0.0999395,0.0944 -0.23319229,0.0944 -0.0721786,0 -0.11104395,-0.0666 -0.0333132,-0.0611 -0.0333132,-0.18877 0,-0.0555 0.0166566,-0.16101 0.0222088,-0.1055 0.0222088,-0.16102 0,-0.0389 -0.0111044,-0.10549 -0.0111044,-0.0666 -0.0111044,-0.1166 0,-0.15546 0.027761,-0.49414 0.0333132,-0.34424 0.0333132,-0.51636 -0.027761,-0.0944 -0.055522,-0.19432 0.0166566,-0.10549 0.0222088,-0.21099 0.005552,-0.11104 -0.005552,-0.20543 l 0.083283,-0.14991 -0.0721786,-0.51635 -0.0388654,-0.0167 q -0.0333132,0 -0.0999396,0.0278 -0.0610742,0.0222 -0.15546152,0.0777 -0.06662637,0.0222 -0.2109835,0.05 -0.13880494,0.0222 -0.37199722,0.0278 -0.0999396,0.05 -0.18877471,0.0888 -0.12770054,0.0278 -0.32202737,0.0999 -0.1943269,0.0666 -0.449728,0.16657 -0.1499093,0.0722 -0.2776099,0.11659 -0.1221483,0.0389 -0.2054313,0.0389 -0.066626,0 -0.1110439,0.05 -0.044418,0.05 -0.072179,0.14435 -0.016657,0.0888 -0.083283,0.2443 -0.061074,0.15546 -0.1665659,0.38865 -0.022209,0.0611 -0.061074,0.18878 -0.038865,0.1277 -0.088835,0.31647 -0.033313,0.0722 -0.077731,0.18323 -0.044418,0.10549 -0.09994,0.24985 0,0.0666 -0.016657,0.16656 -0.011104,0.0944 -0.038865,0.22209 -0.027761,0.0777 -0.077731,0.19433 -0.044418,0.12214 -0.1165961,0.2665 -0.044418,0.0888 -0.1277005,0.1277 -0.083283,0.0444 -0.2165357,0.0444 -0.094387,0 -0.1443572,-0.0666 -0.055522,-0.0611 -0.055522,-0.19432 0,-0.14436 0.033313,-0.33314 0.033313,-0.18322 0.1054918,-0.40531 0.077731,-0.29426 0.1332527,-0.47748 0.055522,-0.18323 0.061074,-0.27206 0.016657,-0.0389 0.04997,-0.13881 0.033313,-0.0999 0.077731,-0.24429 0.04997,-0.13881 0.094387,-0.31648 l -0.027761,-0.0444 -0.1776703,0.0278 q -0.061074,-0.006 -0.088835,-0.05 -0.027761,-0.0444 -0.027761,-0.11659 0,-0.0389 0.011104,-0.0833 0.011104,-0.05 0.033313,-0.1166 z m 2.0154477,-1.02161 q 0.1277005,0 0.37754938,-0.0611 0.24984888,-0.0611 0.37754942,-0.0611 0.0777308,0.0166 0.15546153,0.0278 0.13880493,-0.0278 0.27205767,-0.0611 0.13325273,-0.0389 0.27205767,-0.0666 0.055522,-0.0111 0.083283,-0.0389 0.027761,-0.0333 0.027761,-0.0833 -0.0111044,-0.16657 -0.0111044,-0.22764 0,-0.10549 0.0111044,-0.23319 0.0166566,-0.13326 0.0444176,-0.27206 l -0.0666264,-0.24985 0.0222088,-0.22764 q -0.0222088,-0.12215 -0.0388654,-0.22764 -0.0111044,-0.11104 0,-0.18322 -0.0111044,-0.0222 -0.0388654,-0.0722 -0.027761,-0.05 -0.0610742,-0.10549 -0.055522,-0.0944 -0.11659614,-0.17767 -0.05552198,-0.0888 -0.11104395,-0.17767 -0.07773076,-0.1055 -0.16656592,-0.15547 -0.0888352,-0.05 -0.18322251,-0.05 -0.11104395,0 -0.22764009,0.17767 -0.11659615,0.17768 -0.2165357,0.53857 -0.0166566,0.0444 -0.0943874,0.18322 -0.0721786,0.13881 -0.21098346,0.36089 -0.022209,0.21099 -0.1499093,0.52746 -0.1277006,0.31093 -0.3553406,0.73289 -0.027761,0.0389 -0.033313,0.0666 0,0.0278 0,0.0611 0,0.0389 0.016657,0.0611 0.022209,0.0166 0.061074,0.0166 0.055522,0 0.1776704,-0.0111 0.1277005,-0.0111 0.1832225,-0.0111 z"
         id="path838" />
      <path
         d="m 5.302079,145.06189 q 0.2220879,0.48304 0.2220879,0.5108 -0.072178,0.0999 -0.1332527,0.21099 -0.061074,0.11104 -0.1332527,0.22764 -0.066626,0.0999 -0.1721182,0.17211 -0.1054917,0.0722 -0.2442966,0.12215 -0.1998791,0.0777 -0.3775495,0.15546 -0.1776703,0.0722 -0.3220274,0.14436 -0.1610137,0.0777 -0.3497884,0.10549 -0.1832225,0.0222 -0.3553407,0.0444 -0.1221483,0.0333 -0.2442966,0.0389 -0.1165962,0.0111 -0.2165357,0.0111 -0.083283,0 -0.138805,-0.0111 -0.055522,-0.006 -0.094387,-0.0278 -0.04997,-0.0333 -0.09994,-0.0666 -0.044418,-0.0333 -0.088835,-0.0611 -0.094387,-0.0555 -0.1443572,-0.0833 -0.066626,-0.0389 -0.09994,-0.22209 -0.027761,-0.18322 -0.027761,-0.53301 0,-0.24429 0.1388049,-0.7773 0.138805,-0.53302 0.138805,-0.71069 0,-0.0389 -0.011104,-0.10549 -0.011104,-0.0722 -0.011104,-0.11659 0,-0.15546 0.1054917,-0.70513 0.111044,-0.55522 0.111044,-0.77176 0,-0.10549 -0.083283,-0.14991 -0.077731,-0.05 -0.077731,-0.14435 0,-0.13326 0.022209,-0.29982 0.022209,-0.16657 0.077731,-0.36645 0.044418,-0.16101 0.083283,-0.32203 0.038865,-0.16656 0.077731,-0.32202 0.038865,-0.18323 0.077731,-0.372 0.044418,-0.18877 0.072178,-0.36645 0.033313,-0.12214 0.1054918,-0.29981 0.072179,-0.17767 0.1721181,-0.40531 0.04997,-0.11105 0.088835,-0.20544 0.038865,-0.0999 0.083283,-0.21098 0.044418,-0.0888 0.1277006,-0.15546 0.083283,-0.0722 0.2054313,-0.1277 0.09994,-0.0389 0.1776703,-0.0555 0.077731,-0.0222 0.1054917,-0.0222 0.1499094,0 0.2165357,0.10549 0.072179,0.0999 0.072179,0.31092 0,0.0666 -0.011104,0.15546 -0.00555,0.0833 -0.038865,0.19433 -0.022209,0.1166 -0.044418,0.19988 -0.016657,0.0833 -0.027761,0.13325 -0.00555,0.13326 -0.016657,0.2443 -0.011104,0.11104 -0.027761,0.20543 -0.033313,0.0666 -0.088835,0.16101 -0.038865,0.26096 -0.066626,0.43863 -0.022209,0.17212 -0.022209,0.2443 0,0.23319 -0.1221484,0.58853 -0.1165961,0.34979 -0.1165961,0.53301 0,0.0777 -0.027761,0.20543 -0.027761,0.12215 -0.083283,0.29427 -0.061074,0.23319 -0.09994,0.36089 -0.033313,0.1277 -0.044418,0.15546 -0.011104,0.0833 -0.027761,0.19433 -0.011104,0.11104 -0.038865,0.26095 -0.1277005,0.60519 -0.1943269,1.00495 -0.061074,0.39421 -0.061074,0.59408 0,0.18323 0.038865,0.28317 0.038865,0.0999 0.1165962,0.0999 0.3497884,0 0.705129,-0.0777 0.3608929,-0.0777 0.7495467,-0.22765 0.044418,-0.006 0.083283,-0.0222 0.044418,-0.0167 0.088835,-0.0333 0.066626,-0.0777 0.099939,-0.14435 0.072179,-0.0444 0.1277006,-0.0888 0.055522,-0.05 0.094387,-0.0999 z"
         id="path840" />
      <path
         d="m 5.3353919,144.55109 q -0.016657,-0.0611 -0.016657,-0.0999 -0.00555,-0.0389 -0.00555,-0.0666 0,-0.18322 0.044418,-0.31092 0.044417,-0.13325 0.1332527,-0.22209 0.022209,-0.0222 0.111044,-0.0666 0.094387,-0.0444 0.2442966,-0.1055 0.1054918,-0.05 0.166566,-0.11659 0.066626,-0.0722 0.072178,-0.17212 0.016657,-0.0777 0.066626,-0.17767 0.04997,-0.0999 0.1165961,-0.21654 0.022209,-0.0333 0.1332528,-0.3831 0.1110439,-0.34979 0.310923,-1.02715 0.055522,-0.20544 0.111044,-0.35535 0.055522,-0.1499 0.094387,-0.2554 0.1776703,-0.47193 0.2887143,-0.61629 0.1165961,-0.14991 0.1721181,-0.2443 v -0.0278 l -0.1721181,-0.27206 0.2165357,-0.24984 0.2776098,-0.0555 q 0.083283,-0.0111 0.1499094,-0.15546 0.072178,-0.14435 0.2442967,-0.31647 0.038865,-0.0111 0.1221483,-0.0666 0.088835,-0.0611 0.2220879,-0.16657 0.1165961,-0.0944 0.1998791,-0.1388 0.083283,-0.0444 0.1277005,-0.0444 0.1499094,0 0.2165357,0.0611 0.066626,0.0611 0.066626,0.16101 0,0.12215 -0.1277005,0.35534 -0.1277006,0.23319 -0.1277006,0.35534 0,0.0555 0.022209,0.0944 0.027761,0.0333 0.061074,0.0444 l 0.6662637,0.36089 q 0.055522,0.0222 0.09994,0.17767 0.044418,0.14991 0.072179,0.41641 0.033313,0.22209 0.04997,0.372 0.022209,0.14436 0.022209,0.23319 -0.038865,0.23875 -0.077731,0.48304 0.055522,0.31093 0.1221483,0.65516 -0.033313,0.32758 -0.072178,0.66627 0,0.0333 0.011104,0.0611 0.016656,0.0222 0.044417,0.0278 0.094387,0.006 0.138805,0.05 0.04997,0.0444 0.04997,0.12215 0,0.0999 -0.033313,0.16101 -0.027761,0.0555 -0.083283,0.0888 -0.072179,0.0444 -0.1165961,0.0777 -0.038865,0.0333 -0.055522,0.0555 l 0.072178,0.34424 -0.099939,0.78841 q 0,0.0999 -0.016657,0.2554 -0.016657,0.15546 -0.04997,0.36089 -0.055522,0.14991 -0.083283,0.24985 -0.027761,0.0999 -0.027761,0.13326 0.027761,0.0944 0.04997,0.19988 -0.033313,0.1499 -0.072179,0.29981 -0.033313,0.14991 -0.066626,0.29427 -0.061074,0.19433 -0.1610137,0.28316 -0.09994,0.0944 -0.2331923,0.0944 -0.072179,0 -0.1110439,-0.0666 -0.033313,-0.0611 -0.033313,-0.18877 0,-0.0555 0.016657,-0.16101 0.022209,-0.1055 0.022209,-0.16102 0,-0.0389 -0.011104,-0.10549 -0.011104,-0.0666 -0.011104,-0.1166 0,-0.15546 0.027761,-0.49414 0.033313,-0.34424 0.033313,-0.51636 -0.027761,-0.0944 -0.055522,-0.19432 0.016657,-0.10549 0.022209,-0.21099 0.00555,-0.11104 -0.00555,-0.20543 l 0.083283,-0.14991 -0.072179,-0.51635 -0.038865,-0.0167 q -0.033313,0 -0.09994,0.0278 -0.061074,0.0222 -0.1554615,0.0777 -0.066626,0.0222 -0.2109835,0.05 -0.1388049,0.0222 -0.3719972,0.0278 -0.09994,0.05 -0.1887747,0.0888 -0.1277006,0.0278 -0.3220275,0.0999 -0.1943269,0.0666 -0.449728,0.16657 -0.1499093,0.0722 -0.2776098,0.11659 -0.1221484,0.0389 -0.2054313,0.0389 -0.066626,0 -0.111044,0.05 -0.044418,0.05 -0.072178,0.14435 -0.016657,0.0888 -0.083283,0.2443 -0.061074,0.15546 -0.1665659,0.38865 -0.022209,0.0611 -0.061074,0.18878 -0.038865,0.1277 -0.088835,0.31647 -0.033313,0.0722 -0.077731,0.18323 -0.044418,0.10549 -0.09994,0.24985 0,0.0666 -0.016657,0.16656 -0.011104,0.0944 -0.038865,0.22209 -0.027761,0.0777 -0.077731,0.19433 -0.044418,0.12214 -0.1165961,0.2665 -0.044418,0.0888 -0.1277006,0.1277 -0.083283,0.0444 -0.2165357,0.0444 -0.094387,0 -0.1443571,-0.0666 -0.055522,-0.0611 -0.055522,-0.19432 0,-0.14436 0.033313,-0.33314 0.033313,-0.18322 0.1054917,-0.40531 0.077731,-0.29426 0.1332528,-0.47748 0.055522,-0.18323 0.061074,-0.27206 0.016656,-0.0389 0.04997,-0.13881 0.033313,-0.0999 0.077731,-0.24429 0.04997,-0.13881 0.094387,-0.31648 l -0.027761,-0.0444 -0.1776704,0.0278 q -0.061074,-0.006 -0.088835,-0.05 -0.027761,-0.0444 -0.027761,-0.11659 0,-0.0389 0.011104,-0.0833 0.011104,-0.05 0.033313,-0.1166 z m 2.0154476,-1.02161 q 0.1277006,0 0.3775494,-0.0611 0.2498489,-0.0611 0.3775495,-0.0611 0.077731,0.0166 0.1554615,0.0278 0.1388049,-0.0278 0.2720576,-0.0611 0.1332528,-0.0389 0.2720577,-0.0666 0.055522,-0.0111 0.083283,-0.0389 0.027761,-0.0333 0.027761,-0.0833 -0.011104,-0.16657 -0.011104,-0.22764 0,-0.10549 0.011104,-0.23319 0.016657,-0.13326 0.044417,-0.27206 l -0.066626,-0.24985 0.022209,-0.22764 q -0.022209,-0.12215 -0.038865,-0.22764 -0.011104,-0.11104 0,-0.18322 -0.011104,-0.0222 -0.038865,-0.0722 -0.027761,-0.05 -0.061074,-0.10549 -0.055522,-0.0944 -0.1165961,-0.17767 -0.055522,-0.0888 -0.111044,-0.17767 -0.077731,-0.1055 -0.1665659,-0.15547 -0.088835,-0.05 -0.1832225,-0.05 -0.1110439,0 -0.2276401,0.17767 -0.1165961,0.17768 -0.2165357,0.53857 -0.016657,0.0444 -0.094387,0.18322 -0.072179,0.13881 -0.2109835,0.36089 -0.022209,0.21099 -0.1499094,0.52746 -0.1277005,0.31093 -0.3553406,0.73289 -0.027761,0.0389 -0.033313,0.0666 0,0.0278 0,0.0611 0,0.0389 0.016657,0.0611 0.022209,0.0166 0.061074,0.0166 0.055522,0 0.1776703,-0.0111 0.1277005,-0.0111 0.1832225,-0.0111 z"
         id="path842" />
      <path
         d="m 18.782814,145.57269 q -0.166566,0.1277 -0.416415,0.29427 -0.244296,0.16657 -0.577428,0.36644 -0.299819,0.17212 -0.533011,0.29982 -0.22764,0.12215 -0.383102,0.18323 -0.22764,0.10549 -0.483041,0.14991 -0.255401,0.05 -0.521907,0.05 -0.08328,0 -0.188774,-0.0278 -0.09994,-0.0222 -0.216536,-0.0555 -0.144357,-0.0389 -0.244297,-0.0666 -0.09994,-0.0278 -0.166566,-0.0333 l -0.06663,-0.0666 -0.161014,-0.0222 q -0.105491,-0.006 -0.255401,-0.10549 -0.144357,-0.0999 -0.316475,-0.27761 -0.166566,-0.16657 -0.272058,-0.31648 -0.09994,-0.14991 -0.144357,-0.27206 l -0.149909,-0.47749 q -0.07773,-0.24429 -0.116596,-0.3942 -0.03887,-0.14991 -0.03331,-0.19433 l 0.06107,-0.24985 q -0.04442,-0.1277 -0.07218,-0.21098 -0.02221,-0.0833 -0.02221,-0.1277 0,-0.0444 0.02776,-0.27206 0.02776,-0.22764 0.07773,-0.63295 0.03887,-0.0777 0.08328,-0.18877 0.04442,-0.11105 0.08328,-0.24985 l -0.01666,-0.12215 q 0,-0.0444 0.01666,-0.0999 0.02221,-0.0611 0.05552,-0.13325 0.127701,-0.27206 0.255401,-0.54967 0.127701,-0.27761 0.255401,-0.53857 0.111044,-0.19987 0.283162,-0.41086 0.177671,-0.21098 0.405311,-0.43862 0.04997,-0.0555 0.122148,-0.14436 0.07218,-0.0888 0.172118,-0.19433 0.09439,-0.0555 0.22764,-0.16656 0.138805,-0.1166 0.32758,-0.29427 0.05552,-0.0222 0.133253,-0.0611 0.07773,-0.0389 0.188774,-0.0944 0.02776,-0.0167 0.06663,-0.0555 0.04442,-0.0389 0.09994,-0.0833 0.06107,-0.0555 0.444176,-0.16657 0.383102,-0.11104 0.499698,-0.11104 0.255401,0 0.433071,0.0389 0.17767,0.0333 0.283162,0.11105 l 0.177671,0.0333 q 0.222087,0.05 0.327579,0.33868 0.105492,0.28872 0.105492,0.83283 0,0.2554 -0.0056,0.41086 -0.0056,0.14991 -0.01666,0.20544 -0.03331,0.16656 -0.07773,0.42196 -0.03886,0.24985 -0.105491,0.58298 -0.0056,0.0888 -0.07773,0.29427 -0.06663,0.19988 -0.17767,0.4997 -0.116597,0.32758 -0.19988,0.4997 -0.08328,0.16656 -0.138804,0.18322 -0.222088,0.0555 -0.477489,0.12215 -0.122149,0 -0.172119,-0.0167 -0.04997,-0.0222 -0.04997,-0.0666 0,-0.0389 0.01666,-0.12214 0.02221,-0.0833 0.02221,-0.1166 -0.01666,-0.21098 -0.03331,-0.42752 0,-0.0777 0.04442,-0.30537 0.04442,-0.22764 0.133253,-0.58298 0.09439,-0.38866 0.166566,-0.61074 0.07218,-0.22764 0.116596,-0.28317 0.161014,-0.1499 0.233193,-0.28316 0.07773,-0.1388 0.07773,-0.24985 0,-0.15546 -0.07773,-0.27205 -0.07218,-0.1166 -0.222088,-0.17767 -0.144357,-0.0333 -0.294267,-0.0611 -0.144357,-0.0333 -0.288714,-0.0777 -0.116596,0.0444 -0.210984,0.0666 -0.08883,0.0222 -0.155461,0.0389 -0.371997,0.0611 -0.716234,0.34424 -0.338684,0.28316 -0.649607,0.78286 -0.255401,0.43307 -0.410862,0.87169 -0.155462,0.43307 -0.210984,0.8717 -0.02221,0.13325 -0.05552,0.33313 -0.03331,0.19433 -0.09439,0.46083 0.04997,0.16657 0.08883,0.30537 l -0.05552,0.50525 q 0,0.0278 0.04997,0.1166 0.04997,0.0833 0.155461,0.24985 0.06108,0.0944 0.111044,0.22209 0.04997,0.1277 0.07773,0.28871 0.01111,0.0389 0.03886,0.0833 0.03331,0.0444 0.07218,0.0722 0.08328,0.0722 0.161014,0.1277 0.238744,0.2554 0.50525,0.38866 0.272057,0.1277 0.577428,0.1277 0.02776,0 0.205432,-0.0278 0.183222,-0.0278 0.499697,-0.0888 0.05552,-0.0389 0.144357,-0.0777 0.09439,-0.0389 0.222088,-0.0833 0.111044,-0.11105 0.222088,-0.15546 0.111044,-0.05 0.205432,-0.05 0.02776,-0.0389 0.06663,-0.0944 0.04442,-0.0555 0.111044,-0.12215 0.166566,-0.0666 0.305371,-0.17212 0.138805,-0.11104 0.266505,-0.2554 0.222088,0.48304 0.222088,0.5108 z"
         id="path844" />
      <path
         d="m 18.99935,143.052 q 0,-0.0722 0.03887,-0.17212 0.04442,-0.0999 0.1277,-0.22764 0.116596,-0.16657 0.172118,-0.26096 0.06107,-0.0944 0.06663,-0.12214 0.02776,-0.0611 0.07218,-0.16102 0.04997,-0.0999 0.111044,-0.22764 0.05552,-0.0611 0.127701,-0.26095 0.07218,-0.20543 0.166566,-0.53856 0.04442,-0.0888 0.09439,-0.21099 0.04997,-0.1277 0.122148,-0.29982 0.02221,-0.1277 0.08328,-0.29982 0.06107,-0.17211 0.155462,-0.3831 0.116596,-0.19988 0.244296,-0.3942 0.127701,-0.19433 0.366445,-0.28872 0.09439,0.0611 0.144358,0.12215 0.04997,0.0611 0.04997,0.1166 0,0.1388 -0.1277,0.37199 -0.122149,0.22764 -0.122149,0.31093 0,0.0444 0.04997,0.0833 0.04442,-0.0222 0.161014,-0.13325 0.116596,-0.11105 0.305371,-0.29982 0.155461,-0.14436 0.27761,-0.23319 0.1277,-0.0944 0.238744,-0.1166 0.07218,-0.0278 0.183223,-0.05 0.111044,-0.0222 0.249849,-0.0722 0.07218,-0.0389 0.116596,-0.0777 0.03887,-0.0333 0.122148,-0.0666 l 0.08328,0.0166 q 0.04997,0.05 0.27761,0.10549 0.22764,0.05 0.288714,0.05 0.04997,0.0278 0.116596,0.0888 0.06663,0.0611 0.172118,0.13325 0.222088,0.13325 0.410863,0.39421 0.194327,0.2554 0.349788,0.6385 0.144358,0.34979 0.216536,0.66626 0.07773,0.31648 0.07773,0.61075 0,0.92721 -0.233192,1.61013 -0.233193,0.68292 -0.705129,1.12155 -0.04442,0.0444 -0.111044,0.11104 -0.06107,0.0611 -0.155462,0.14991 v 0.0611 q -0.0111,0.0555 -0.06663,0.12215 -0.04997,0.0611 -0.144357,0.14436 -0.205432,0.18877 -0.416415,0.3831 -0.210984,0.18878 -0.433072,0.372 -0.277609,0.23874 -0.527458,0.37755 -0.249849,0.1388 -0.483042,0.19432 -0.09994,0.0888 -0.249848,0.13881 -0.144358,0.0444 -0.355341,0.0444 -0.310923,0 -0.50525,-0.0389 -0.194327,-0.0444 -0.27761,-0.12215 -0.04997,-0.05 -0.116596,-0.0999 -0.06663,-0.05 -0.155462,-0.1277 -0.09439,-0.0722 -0.17767,-0.26095 -0.08328,-0.19433 -0.149909,-0.4997 -0.04442,-0.22764 -0.07218,-0.43862 -0.02221,-0.21654 -0.02221,-0.39976 0,-0.0555 0.02776,-0.18322 0.02776,-0.1277 0.02221,-0.19433 0,-0.1277 -0.0111,-0.22209 0,-0.0999 0.06107,-0.31647 0.06107,-0.21654 0.06107,-0.34424 0,-0.0278 -0.03331,-0.0833 -0.08883,0.0999 -0.127701,0.18322 -0.03331,0.0555 -0.07773,0.0833 -0.04442,0.0278 -0.08328,0.0278 -0.06107,0 -0.09994,-0.05 -0.03331,-0.05 -0.03331,-0.14991 0,-0.0666 0.02776,-0.19988 0.03331,-0.13326 0.03331,-0.20543 z m 3.331319,-2.71503 q -0.133253,0 -0.272058,0.0333 -0.138805,0.0333 -0.283162,0.0944 l -0.538563,0.23875 q -0.05552,0.0278 -0.127701,0.0888 -0.06663,0.0611 -0.149909,0.16657 l -0.255401,0.31647 q -0.122149,0.14436 -0.216536,0.52746 -0.09439,0.3831 -0.166566,0.9994 -0.05552,0.47193 -0.07773,0.8828 -0.02221,0.40531 -0.02221,0.74954 0,0.70513 0.216535,1.05492 0.216536,0.34424 0.65516,0.34424 0.205431,0 0.460832,-0.1055 0.255401,-0.11104 0.55522,-0.33313 0.255401,-0.18877 0.449728,-0.37755 0.194327,-0.19432 0.322027,-0.3942 0.05552,-0.0777 0.172118,-0.32758 0.122149,-0.24985 0.333132,-0.68292 0.138805,-0.31648 0.216536,-0.63851 0.07773,-0.32757 0.07773,-0.67181 -0.03331,-0.16657 -0.07218,-0.32758 l 0.03887,-0.23875 q -0.05552,-0.0666 -0.09439,-0.12214 -0.01666,-0.0444 -0.02776,-0.0722 -0.172118,-0.59964 -0.466385,-0.89946 -0.294266,-0.30537 -0.727337,-0.30537 z"
         id="path846" />
      <path
         d="m 26.711354,143.60166 q 0,0.11105 0.155461,0.29982 0.161014,0.18322 0.477489,0.45528 0.205432,0.17212 0.421967,0.33869 0.222088,0.16101 0.438624,0.32758 0.09439,0.0777 0.244297,0.20543 0.149909,0.12215 0.349788,0.28871 0.144357,0.11105 0.299819,0.22209 0.161013,0.11104 0.344236,0.22209 0.122148,0.0944 0.272058,0.20543 0.149909,0.11104 0.344236,0.23874 0.111044,0.0666 0.172118,0.2443 0.06107,0.17212 0.07218,0.44973 l -0.04997,0.14435 -0.05552,0.0278 q -0.05552,0 -0.14991,-0.05 -0.08883,-0.0444 -0.22764,-0.13326 -0.02776,-0.0166 -0.255401,-0.12215 -0.222088,-0.10549 -0.644055,-0.29981 -0.233192,-0.0999 -0.427519,-0.22209 -0.194327,-0.1277 -0.35534,-0.26651 -0.09439,-0.0833 -0.244297,-0.18322 -0.144357,-0.0999 -0.344236,-0.21654 -0.205432,-0.11659 -0.355341,-0.22208 -0.149909,-0.1055 -0.238744,-0.17767 -0.299819,-0.2443 -0.488594,-0.372 -0.188775,-0.1277 -0.260953,-0.1277 -0.05552,0.0777 -0.06107,0.16101 -0.06663,0.26096 -0.144357,0.66071 -0.07218,0.39421 -0.161014,0.92167 0,0.0944 -0.03331,0.1388 -0.03331,0.05 -0.09994,0.05 -0.216536,0 -0.327579,-0.10549 -0.111044,-0.10549 -0.111044,-0.31647 0,-0.28317 0.03331,-0.59409 0.03886,-0.31092 0.122148,-0.65516 0.02776,-0.14991 0.03887,-0.2665 0.01666,-0.12215 0.01666,-0.22209 0,-0.2554 -0.222088,-0.43863 -0.216536,-0.18322 -0.216536,-0.26095 0,-0.12215 0.03331,-0.21098 0.03887,-0.0944 0.111044,-0.14991 0.183222,-0.1166 0.338684,-0.22209 0.03886,-0.0222 0.04997,-0.0722 0.01666,-0.0555 0.01666,-0.14991 0,-0.0555 0,-0.11659 0,-0.0666 0,-0.12215 0.01666,-0.49415 0.02776,-1.02716 0,-0.0389 0,-0.12215 0,-0.0833 -0.0111,-0.21653 -0.0111,-0.0999 -0.0056,-0.18322 0.0056,-0.0888 0.0056,-0.16102 -0.03331,-0.11104 -0.06107,-0.18877 -0.02221,-0.0833 -0.02221,-0.15546 0,-0.0666 0.0111,-0.20544 0.0111,-0.14435 0.0111,-0.20543 0,-0.0777 -0.01666,-0.21653 -0.0111,-0.13881 -0.0111,-0.21099 0,-0.19988 0.08884,-0.3831 0.09439,-0.18322 0.283162,-0.36089 0.183222,-0.15546 0.371997,-0.23319 0.194327,-0.0833 0.394206,-0.0833 0.09439,0 0.27761,0.0167 0.188774,0.0111 0.294266,0.0111 0.07218,0 0.394206,0.12214 0.127701,0.0111 0.22764,0.0333 0.09994,0.0166 0.161014,0.0389 0.138805,0.0666 0.216536,0.10549 0.07773,0.0333 0.111044,0.0389 0.09439,0.0333 0.161013,0.0555 0.07218,0.0222 0.116597,0.0555 0.07218,0.0333 0.166565,0.0777 0.09994,0.0444 0.222088,0.0999 0.199879,0.0999 0.371998,0.2332 0.17767,0.13325 0.333131,0.28871 0.177671,0.19988 0.266506,0.39421 0.08883,0.18877 0.08883,0.37755 0,0.0555 -0.0111,0.16101 -0.0056,0.0999 -0.02776,0.22764 -0.01666,0.16101 -0.166566,0.34979 -0.14991,0.18322 -0.433072,0.40531 -0.249849,0.19432 -0.466384,0.32758 -0.216536,0.1277 -0.399758,0.18322 -0.07218,0.05 -0.111044,0.0944 -0.05552,0.0555 -0.233193,0.15546 -0.17767,0.0999 -0.483041,0.24985 -0.55522,0.27206 -0.788412,0.36089 -0.233192,0.0833 -0.233192,0.18322 z m -0.582981,-2.67616 q 0.105492,-0.0777 0.199879,-0.14991 0.09439,-0.0777 0.244297,-0.0777 0.06663,0 0.161014,0.14991 0.09994,0.14436 0.09994,0.21654 0,0.0389 -0.02776,0.17767 -0.02776,0.1388 -0.08883,0.37755 -0.1277,0.53856 -0.144357,0.67737 -0.01666,0.13325 -0.07218,0.42196 -0.02221,0.0722 -0.04442,0.18878 0,0.05 0.01666,0.0722 0.02221,0.0222 0.05552,0.0222 1.104888,-0.55522 1.143753,-0.57743 0.04442,-0.0111 0.09439,-0.0278 0.04997,-0.0222 0.09439,-0.0444 l 0.08328,-0.10549 q 0.322027,-0.20543 0.666263,-0.43863 0.216536,-0.16656 0.322028,-0.32758 0.105492,-0.16101 0.105492,-0.32202 0,-0.20543 -0.238745,-0.40531 -0.238744,-0.19988 -0.716233,-0.38311 -0.405311,-0.16101 -0.738443,-0.23319 -0.333131,-0.0777 -0.605189,-0.0777 -0.355341,0 -0.538563,0.1277 -0.177671,0.12215 -0.177671,0.36645 0,0.18877 0.02776,0.28871 0.02776,0.0944 0.07773,0.0833 z"
         id="path848" />
      <path
         d="m 30.980992,138.86564 q 0.22764,-0.0666 0.494145,-0.0999 0.272058,-0.0333 0.599637,-0.0333 0.06108,0 0.177671,0.0222 0.122148,0.0167 0.194327,0.0167 0.105491,0.0167 0.161013,0.0333 0.06107,0.0167 0.166566,0.0389 l 0.155462,-0.0444 q 0.04997,0.006 0.105492,0.0444 0.06107,0.0333 0.144357,0.0777 0.04442,-0.0278 0.1277,-0.0666 0.08328,0 0.133253,0.0666 0.05552,0.0611 0.07218,0.17767 0,0.0888 0,0.17767 0,0.0833 -0.0111,0.17767 -0.0056,0.0444 0.0056,0.13881 0.01111,0.0944 0.01111,0.14435 0,0.0611 -0.02776,0.0888 -0.02776,0.0278 -0.07218,0.0278 -0.210983,0 -0.416415,-0.0333 -0.205431,-0.0389 -0.410862,-0.11105 -0.177671,0.0333 -0.310923,0.05 -0.105492,0.0111 -0.155462,0.0333 -0.04997,0.0222 -0.04997,0.0555 0.02221,0.0389 0.06108,0.0833 0.03887,0.0444 0.09439,0.0833 0.03887,0.0278 0.08884,0.12215 0.04997,0.0888 0.105492,0.2443 0.02221,0.0611 0.02776,0.11659 0.0111,0.0555 0.0111,0.1055 0,0.11659 -0.02221,0.29426 -0.02221,0.17212 -0.04997,0.28317 -0.04997,0.21653 -0.07773,0.36089 -0.02776,0.1388 -0.04442,0.21098 -0.0111,0.0555 -0.01666,0.13325 -0.0056,0.0777 -0.01111,0.17767 -0.0056,0.0833 -0.04442,0.21099 -0.03887,0.12215 -0.07773,0.28316 0,0.0722 -0.01666,0.16657 -0.01666,0.0944 -0.04442,0.21653 -0.01666,0.0722 -0.05552,0.16657 -0.03331,0.0888 -0.06663,0.21098 0.01111,0.0833 0.01666,0.17212 -0.02221,0.15546 -0.04442,0.32203 -0.03331,0.23874 -0.06663,0.48304 -0.03331,0.24429 -0.06107,0.47193 -0.03331,0.0666 -0.07218,0.14991 0,0.0389 0.01111,0.12215 0.01666,0.0777 0.01666,0.1277 0,0.0611 -0.02221,0.18323 -0.02221,0.11659 -0.02221,0.17211 0,0.1055 -0.0056,0.32758 -0.0056,0.22209 -0.0056,0.33313 0.02776,0.0944 0.04997,0.18323 -0.01666,0.0777 -0.03886,0.1277 -0.01666,0.0444 -0.04997,0.0722 -0.09994,0.0611 -0.183223,0.0999 -0.05552,0.0555 -0.09439,0.0888 -0.03331,0.0333 -0.06107,0.0333 -0.122148,0 -0.172118,-0.0333 -0.04997,-0.0333 -0.04997,-0.0888 0.0111,-0.18323 0.03887,-0.35534 -0.0111,-0.0222 -0.02776,-0.0666 -0.0111,-0.0444 -0.03886,-0.11104 -0.02776,-0.43308 -0.07218,-0.88836 0.01666,-0.32758 0.01666,-0.66071 0,-0.15546 0.0111,-0.38865 0.01666,-0.23875 0.05552,-0.54967 0.03887,-0.31092 0.05552,-0.54411 0.01666,-0.2332 0.01666,-0.38311 0,-0.0666 0.0111,-0.16656 0.01666,-0.10549 0.03331,-0.2554 0.01666,-0.1277 0.03331,-0.22764 0.01666,-0.1055 0.01666,-0.18878 0,-0.0444 -0.0056,-0.0944 -0.0056,-0.05 -0.0111,-0.0888 0.05552,-0.13881 0.08328,-0.22209 0.02776,-0.0888 0.02776,-0.11659 -0.02221,-0.0722 -0.04997,-0.14436 0.03331,-0.0777 0.07218,-0.27761 0.03887,-0.20543 0.08328,-0.53301 0,-0.0666 0,-0.16102 0,-0.0944 0.0056,-0.22764 l -0.03331,-0.0999 q -0.02221,-0.0111 -0.08328,-0.0278 -0.05552,-0.0166 -0.144358,-0.0278 l -0.07218,0.05 q -0.07218,0.0167 -0.149909,0.0333 -0.07218,0.0166 -0.155462,0.0389 -0.577429,0.16101 -1.143753,0.31648 -0.04442,0 -0.07218,-0.0333 -0.02776,-0.0389 -0.02776,-0.0999 0,-0.0333 0.02776,-0.11659 0.02776,-0.0833 0.08883,-0.21654 0.0111,-0.19433 0.02776,-0.32203 0.01666,-0.1277 0.03887,-0.19432 0.04442,-0.12215 0.138805,-0.20543 0.08883,-0.0833 0.216536,-0.1277 0.255401,-0.0833 0.477489,-0.11105 0.222088,-0.0278 0.410863,-0.006 z"
         id="path850" />
      <path
         d="m 33.751536,145.48386 q 0,-0.31092 0.02221,-0.52191 0.02776,-0.21653 0.06107,-0.33868 -0.0111,-0.0944 -0.02776,-0.19433 0,-0.1166 0.02776,-0.38865 0.02776,-0.27206 0.08328,-0.71068 0.04997,-0.42197 0.08328,-0.64961 0.03887,-0.23319 0.05552,-0.28316 -0.0111,-0.0944 -0.02776,-0.20543 -0.0111,-0.11105 -0.04442,-0.2443 l -0.122149,-0.0888 -0.02776,-0.0666 q 0.0111,-0.15546 0.01666,-0.31093 0.0111,-0.16101 0.03887,-0.32202 0.01111,-0.19988 0.04997,-0.34979 0.04442,-0.14991 0.08883,-0.26096 0.01666,-0.0278 0.03331,-0.0777 0.02221,-0.05 0.05552,-0.10549 0.04997,-0.19988 0.09994,-0.39976 0.04997,-0.19988 0.105492,-0.38865 0.08328,-0.18877 0.238744,-0.30537 0.155462,-0.1166 0.37755,-0.14991 0.155461,-0.0833 0.266505,-0.12215 0.111044,-0.0444 0.17767,-0.0444 0.07773,0 0.122149,0.0611 0.04442,0.0611 0.04442,0.17212 0,0.0444 -0.04442,0.31092 -0.04442,0.26095 -0.138805,0.72734 -0.01666,0.15546 -0.05552,0.37199 -0.03887,0.21099 -0.105492,0.50525 -0.08328,0.32758 -0.166566,0.72179 -0.07773,0.38865 -0.144357,0.86059 -0.02776,0.19988 -0.06107,0.39421 -0.03331,0.19432 -0.06107,0.3942 -0.03331,0.22764 -0.06107,0.43307 -0.02221,0.19988 -0.02221,0.3609 0,0.0611 0.0056,0.11659 0.0111,0.0555 0.0111,0.10549 0.01111,0.0611 -0.0056,0.16102 -0.0111,0.0999 -0.02776,0.23874 -0.02221,0.13326 -0.03887,0.2443 -0.01666,0.10549 -0.01666,0.16101 0,0.28317 0.01111,0.46084 0.01666,0.17211 0.03331,0.22764 0.03886,0.14991 0.07773,0.32202 0,0.0944 -0.249849,0.28317 -0.249849,0.18322 -0.360893,0.18322 -0.06663,0 -0.122148,-0.05 -0.04997,-0.0444 -0.105492,-0.13881 -0.03887,-0.0888 -0.06107,-0.16101 -0.02221,-0.0722 -0.02221,-0.13325 0,-0.0333 0.02221,-0.1055 0.02221,-0.0722 0.02221,-0.10549 -0.04442,-0.16656 -0.09994,-0.27761 -0.01111,0.0555 -0.01111,-0.0222 0,-0.0777 0,-0.29426 z"
         id="path852" />
      <path
         d="m 36.705306,140.57016 -0.08884,-0.36089 q 0.03331,-0.11104 0.06663,-0.22209 0.03331,-0.11659 0.06107,-0.22764 0.03331,-0.0777 0.111044,-0.11659 0.08328,-0.0444 0.216535,-0.0444 0.04997,0 0.14991,-0.0222 0.105491,-0.0222 0.149909,-0.0222 0.04997,0 0.133253,0.0777 0.08328,0.0777 0.116596,0.0888 0.03886,-0.0278 0.09439,-0.0944 0.06107,-0.0666 0.144357,-0.17767 0.07218,-0.0888 0.138805,-0.14436 0.06663,-0.0555 0.144357,-0.0777 0.08884,0.0444 0.155462,0.0722 0.03887,0.0222 0.04997,0.05 0.01666,0.0278 0.01666,0.0777 0,0.0278 -0.02776,0.12215 -0.02776,0.0888 -0.08328,0.2443 -0.06107,0.16656 -0.09439,0.27761 -0.03331,0.11104 -0.04442,0.17211 -0.08328,0.1277 -0.133252,0.2332 -0.04442,0.0999 -0.04442,0.18877 0,0.11104 0.06663,0.33313 0.06663,0.21654 0.194327,0.54412 0.177671,0.44417 0.360893,0.92721 0.166566,0.53302 0.349789,1.03271 0.183222,0.49415 0.383101,0.94943 0.205432,0.47749 0.338684,0.71068 0.133253,0.23319 0.199879,0.23319 0.05552,0 0.07773,-0.0611 0.02776,-0.0666 0.02776,-0.20543 0,-0.0555 0.01111,-0.14436 0.01666,-0.0888 0.04997,-0.19433 0.04997,-0.14991 0.09439,-0.33868 0.05552,-0.28871 0.09994,-0.50525 0.04997,-0.21654 0.08328,-0.372 0.02221,-0.0999 0.04997,-0.42196 0.02776,-0.32203 0.05552,-0.8717 0,-0.0555 0.01666,-0.15546 0.02221,-0.0999 0.03887,-0.22764 0.02221,-0.1277 0.03331,-0.21654 0.01111,-0.0944 0.01111,-0.16656 0,-0.1277 -0.02776,-0.37755 -0.02776,-0.2554 -0.02776,-0.3831 0.08328,-0.34979 0.155461,-0.68292 0.06107,-0.28872 0.116596,-0.47749 0.05552,-0.19433 0.09439,-0.29427 0.08883,-0.19988 0.216535,-0.34424 0.127701,-0.14991 0.283162,-0.24429 h 0.04442 q 0.05552,0 0.07218,0.0222 0.02221,0.0222 0.02221,0.0722 -0.02776,0.1166 -0.04997,0.17768 0.01666,0.0999 0.03331,0.21098 -0.01666,0.1388 -0.03887,0.23319 -0.0111,0.0611 -0.02221,0.18878 -0.0111,0.12214 -0.0111,0.29981 0,0.0666 -0.01666,0.28872 -0.01666,0.21653 -0.06107,0.58298 -0.03331,0.52191 -0.08328,1.03826 -0.04442,0.51635 -0.09439,1.03271 -0.04442,0.62184 -0.127701,1.1382 -0.08328,0.5108 -0.199879,0.91611 -0.02776,0.2443 -0.105491,0.54412 -0.07218,0.29982 -0.188775,0.6496 l -0.172118,0.27761 q -0.01666,0.0222 -0.349789,0.14436 -0.333131,0.1166 -0.371997,0.1166 -0.08328,0 -0.249849,-0.21654 -0.166566,-0.22209 -0.394206,-0.67181 -0.216535,-0.40531 -0.344236,-0.66627 -0.127701,-0.2665 -0.161014,-0.39976 -0.0111,-0.05 -0.03331,-0.1277 -0.02221,-0.0777 -0.04997,-0.17767 -0.111044,-0.24429 -0.283162,-0.60519 -0.166566,-0.36089 -0.388654,-0.85503 -0.03887,-0.12215 -0.09994,-0.2332 -0.05552,-0.11659 -0.138805,-0.24429 l -0.03887,0.0166 q -0.03887,0.11105 -0.07773,0.27761 -0.03887,0.16657 -0.08884,0.39976 -0.05552,0.14991 -0.116596,0.26651 -0.08328,0.32202 -0.188775,0.69957 -0.105492,0.37755 -0.22764,0.81062 -0.03331,0.14436 -0.06663,0.29982 -0.03331,0.15546 -0.07773,0.32203 l -0.09994,0.18322 q -0.02221,0.16657 -0.04997,0.32758 -0.03887,0.1277 -0.09994,0.31093 -0.05552,0.17767 -0.138805,0.42751 -0.01666,0.12771 -0.08328,0.18878 -0.06107,0.0666 -0.172118,0.0722 -0.01111,0.0222 -0.04442,0.0444 -0.03331,0.0278 -0.111044,0.05 -0.05552,0.0111 -0.08328,-0.0611 -0.02776,-0.0666 -0.02776,-0.19988 0,-0.0777 0.02776,-0.24429 0.02776,-0.16657 0.08328,-0.42197 0.06107,-0.28872 0.09439,-0.44973 0.03887,-0.16657 0.04997,-0.21098 0.02221,-0.13326 0.04997,-0.34979 0.02776,-0.21654 0.06107,-0.4997 0.01111,-0.0722 0.03331,-0.17767 0.02776,-0.11104 0.06663,-0.2554 0.02776,-0.11104 0.111044,-0.59964 0.08328,-0.49414 0.216535,-1.37139 0.144358,-0.86059 0.27761,-1.73229 z"
         id="path854" />
      <path
         d="m 41.385809,144.55109 q -0.01666,-0.0611 -0.01666,-0.0999 -0.0056,-0.0389 -0.0056,-0.0666 0,-0.18322 0.04442,-0.31092 0.04442,-0.13325 0.133252,-0.22209 0.02221,-0.0222 0.111044,-0.0666 0.09439,-0.0444 0.244297,-0.1055 0.105492,-0.05 0.166566,-0.11659 0.06663,-0.0722 0.07218,-0.17212 0.01666,-0.0777 0.06663,-0.17767 0.04997,-0.0999 0.116596,-0.21654 0.02221,-0.0333 0.133253,-0.3831 0.111044,-0.34979 0.310923,-1.02715 0.05552,-0.20544 0.111044,-0.35535 0.05552,-0.1499 0.09439,-0.2554 0.17767,-0.47193 0.288714,-0.61629 0.116596,-0.14991 0.172118,-0.2443 v -0.0278 l -0.172118,-0.27206 0.216536,-0.24984 0.27761,-0.0555 q 0.08328,-0.0111 0.149909,-0.15546 0.07218,-0.14435 0.244297,-0.31647 0.03887,-0.0111 0.122148,-0.0666 0.08884,-0.0611 0.222088,-0.16657 0.116596,-0.0944 0.199879,-0.1388 0.08328,-0.0444 0.127701,-0.0444 0.149909,0 0.216535,0.0611 0.06663,0.0611 0.06663,0.16101 0,0.12215 -0.127701,0.35534 -0.1277,0.23319 -0.1277,0.35534 0,0.0555 0.02221,0.0944 0.02776,0.0333 0.06107,0.0444 l 0.666263,0.36089 q 0.05552,0.0222 0.09994,0.17767 0.04442,0.14991 0.07218,0.41641 0.03331,0.22209 0.04997,0.372 0.02221,0.14436 0.02221,0.23319 -0.03887,0.23875 -0.07773,0.48304 0.05552,0.31093 0.122149,0.65516 -0.03331,0.32758 -0.07218,0.66627 0,0.0333 0.01111,0.0611 0.01666,0.0222 0.04442,0.0278 0.09439,0.006 0.138805,0.05 0.04997,0.0444 0.04997,0.12215 0,0.0999 -0.03331,0.16101 -0.02776,0.0555 -0.08328,0.0888 -0.07218,0.0444 -0.116596,0.0777 -0.03887,0.0333 -0.05552,0.0555 l 0.07218,0.34424 -0.09994,0.78841 q 0,0.0999 -0.01666,0.2554 -0.01666,0.15546 -0.04997,0.36089 -0.05552,0.14991 -0.08328,0.24985 -0.02776,0.0999 -0.02776,0.13326 0.02776,0.0944 0.04997,0.19988 -0.03331,0.1499 -0.07218,0.29981 -0.03331,0.14991 -0.06663,0.29427 -0.06107,0.19433 -0.161014,0.28316 -0.09994,0.0944 -0.233192,0.0944 -0.07218,0 -0.111044,-0.0666 -0.03331,-0.0611 -0.03331,-0.18877 0,-0.0555 0.01666,-0.16101 0.02221,-0.1055 0.02221,-0.16102 0,-0.0389 -0.0111,-0.10549 -0.0111,-0.0666 -0.0111,-0.1166 0,-0.15546 0.02776,-0.49414 0.03331,-0.34424 0.03331,-0.51636 -0.02776,-0.0944 -0.05552,-0.19432 0.01666,-0.10549 0.02221,-0.21099 0.0056,-0.11104 -0.0056,-0.20543 l 0.08328,-0.14991 -0.07218,-0.51635 -0.03887,-0.0167 q -0.03331,0 -0.09994,0.0278 -0.06107,0.0222 -0.155462,0.0777 -0.06663,0.0222 -0.210983,0.05 -0.138805,0.0222 -0.371997,0.0278 -0.09994,0.05 -0.188775,0.0888 -0.127701,0.0278 -0.322028,0.0999 -0.194327,0.0666 -0.449728,0.16657 -0.149909,0.0722 -0.277609,0.11659 -0.122149,0.0389 -0.205432,0.0389 -0.06663,0 -0.111044,0.05 -0.04442,0.05 -0.07218,0.14435 -0.01666,0.0888 -0.08328,0.2443 -0.06107,0.15546 -0.166566,0.38865 -0.02221,0.0611 -0.06107,0.18878 -0.03887,0.1277 -0.08884,0.31647 -0.03331,0.0722 -0.07773,0.18323 -0.04442,0.10549 -0.09994,0.24985 0,0.0666 -0.01666,0.16656 -0.0111,0.0944 -0.03887,0.22209 -0.02776,0.0777 -0.07773,0.19433 -0.04442,0.12214 -0.116596,0.2665 -0.04442,0.0888 -0.1277,0.1277 -0.08328,0.0444 -0.216536,0.0444 -0.09439,0 -0.144357,-0.0666 -0.05552,-0.0611 -0.05552,-0.19432 0,-0.14436 0.03331,-0.33314 0.03331,-0.18322 0.105492,-0.40531 0.07773,-0.29426 0.133253,-0.47748 0.05552,-0.18323 0.06107,-0.27206 0.01666,-0.0389 0.04997,-0.13881 0.03331,-0.0999 0.07773,-0.24429 0.04997,-0.13881 0.09439,-0.31648 l -0.02776,-0.0444 -0.177671,0.0278 q -0.06107,-0.006 -0.08884,-0.05 -0.02776,-0.0444 -0.02776,-0.11659 0,-0.0389 0.01111,-0.0833 0.0111,-0.05 0.03331,-0.1166 z m 2.015447,-1.02161 q 0.127701,0 0.37755,-0.0611 0.249849,-0.0611 0.377549,-0.0611 0.07773,0.0166 0.155462,0.0278 0.138805,-0.0278 0.272057,-0.0611 0.133253,-0.0389 0.272058,-0.0666 0.05552,-0.0111 0.08328,-0.0389 0.02776,-0.0333 0.02776,-0.0833 -0.0111,-0.16657 -0.0111,-0.22764 0,-0.10549 0.0111,-0.23319 0.01666,-0.13326 0.04442,-0.27206 l -0.06663,-0.24985 0.02221,-0.22764 q -0.02221,-0.12215 -0.03887,-0.22764 -0.01111,-0.11104 0,-0.18322 -0.01111,-0.0222 -0.03887,-0.0722 -0.02776,-0.05 -0.06107,-0.10549 -0.05552,-0.0944 -0.116596,-0.17767 -0.05552,-0.0888 -0.111044,-0.17767 -0.07773,-0.1055 -0.166566,-0.15547 -0.08884,-0.05 -0.183222,-0.05 -0.111044,0 -0.22764,0.17767 -0.116597,0.17768 -0.216536,0.53857 -0.01666,0.0444 -0.09439,0.18322 -0.07218,0.13881 -0.210984,0.36089 -0.02221,0.21099 -0.149909,0.52746 -0.127701,0.31093 -0.355341,0.73289 -0.02776,0.0389 -0.03331,0.0666 0,0.0278 0,0.0611 0,0.0389 0.01666,0.0611 0.02221,0.0166 0.06107,0.0166 0.05552,0 0.17767,-0.0111 0.1277,-0.0111 0.183222,-0.0111 z"
         id="path856" />
    </g>
  </g>
  <g
     inkscape:groupmode="layer"
     id="layer6"
     inkscape:label="tapon"
     transform="translate(-19.727189,-8.4666665)">
    <path
       id="path66444-2"
       style="fill:url(#radialGradient1612);fill-opacity:1;stroke:none;stroke-width:6.3103;stroke-linecap:round;stroke-linejoin:round;stroke-dasharray:none;stroke-opacity:1"
       d="m 38.883883,10.086755 v 8.504385 0.07637 h 0.01106 a 7.2760664,1.6169298 0 0 0 7.265007,1.540563 7.2760664,1.6169298 0 0 0 7.264749,-1.540563 h 0.01132 v -0.07637 -8.504385 z"
       inkscape:label="tapon" />
    <path
       id="path66444"
       style="fill:#0088d1;stroke-width:6.3103;stroke-linecap:round;stroke-linejoin:round"
       d="m 53.435967,10.083596 a 7.2760663,1.6169298 0 0 1 -7.276066,1.61693 7.2760663,1.6169298 0 0 1 -7.276067,-1.61693 7.2760663,1.6169298 0 0 1 7.276067,-1.6169295 7.2760663,1.6169298 0 0 1 7.276066,1.6169295 z" />
  </g>
</svg>
