<?xml version="1.0" encoding="UTF-8" standalone="no"?>
<!-- Created with Inkscape (http://www.inkscape.org/) -->

<svg
   width="210mm"
   height="297mm"
   viewBox="0 0 210 297"
   version="1.1"
   id="svg51777"
   inkscape:version="1.2 (dc2aedaf03, 2022-05-15)"
   sodipodi:docname="olas.svg"
   xmlns:inkscape="http://www.inkscape.org/namespaces/inkscape"
   xmlns:sodipodi="http://sodipodi.sourceforge.net/DTD/sodipodi-0.dtd"
   xmlns="http://www.w3.org/2000/svg"
   xmlns:svg="http://www.w3.org/2000/svg">
  <sodipodi:namedview
     id="namedview51779"
     pagecolor="#ffffff"
     bordercolor="#000000"
     borderopacity="0.25"
     inkscape:showpageshadow="2"
     inkscape:pageopacity="0.0"
     inkscape:pagecheckerboard="0"
     inkscape:deskcolor="#d1d1d1"
     inkscape:document-units="mm"
     showgrid="false"
     inkscape:zoom="0.74564394"
     inkscape:cx="396.97231"
     inkscape:cy="25.481331"
     inkscape:window-width="1920"
     inkscape:window-height="1017"
     inkscape:window-x="1358"
     inkscape:window-y="-8"
     inkscape:window-maximized="1"
     inkscape:current-layer="layer1" />
  <defs
     id="defs51774" />
  <g
     inkscape:label="Capa 1"
     inkscape:groupmode="layer"
     id="layer1">
    <path
       id="path50078"
       style="fill:none;fill-opacity:1;stroke:#0032ba;stroke-width:2.80797;stroke-linecap:round;stroke-linejoin:round;stroke-opacity:1;stop-color:#000000"
       d="M 22.28574,1.4039813 A 31.852788,46.398092 0 0 0 1.4036852,12.767022 H 43.165735 A 31.852788,46.398092 0 0 0 22.28574,1.4039813 Z" />
    <path
       id="path50078-9"
       style="fill:none;fill-opacity:1;stroke:#0032ba;stroke-width:2.80797;stroke-linecap:round;stroke-linejoin:round;stroke-opacity:1;stop-color:#000000"
       d="M 63.106978,1.4059245 A 31.852788,46.398092 0 0 0 42.225955,12.767022 H 83.985437 A 31.852788,46.398092 0 0 0 63.106978,1.4059245 Z" />
    <path
       id="path50078-9-8"
       style="fill:none;fill-opacity:1;stroke:#0032ba;stroke-width:2.80797;stroke-linecap:round;stroke-linejoin:round;stroke-opacity:1;stop-color:#000000"
       d="M 103.92873,1.4049624 A 31.852788,46.398092 0 0 0 83.047701,12.767022 H 124.80771 A 31.852788,46.398092 0 0 0 103.92873,1.4049624 Z" />
    <path
       id="path50078-9-8-3"
       style="fill:none;fill-opacity:1;stroke:#0032ba;stroke-width:2.80797;stroke-linecap:round;stroke-linejoin:round;stroke-opacity:1;stop-color:#000000"
       d="m 144.74998,1.4049624 a 31.852788,46.398092 0 0 0 -20.881,11.3620596 h 41.75995 A 31.852788,46.398092 0 0 0 144.74998,1.4049624 Z" />
  </g>
</svg>
