<svg width="1448" height="1212" viewBox="0 0 1448 1212" fill="none" xmlns="http://www.w3.org/2000/svg">
<g filter="url(#filter0_d_14_24)">
<rect width="1440" height="1024" transform="translate(4)" fill="white"/>
<g clip-path="url(#clip0_14_24)">
<path d="M740.371 440.649C817.51 440.649 880.043 378.116 880.043 300.977C880.043 223.838 817.51 161.305 740.371 161.305C663.232 161.305 600.699 223.838 600.699 300.977C600.699 378.116 663.232 440.649 740.371 440.649Z" fill="#C6C6C6"/>
<path d="M239.5 373C277.884 373 309 340.764 309 301C309 261.235 277.884 229 239.5 229C201.116 229 170 261.235 170 301C170 340.764 201.116 373 239.5 373Z" fill="#C6C6C6"/>
<path d="M1444 17H452.687V51.6136H1444V17Z" fill="#C6C6C6"/>
<path d="M1444 1023.74H4V324.271L1057.56 581.175L1444 1023.74Z" fill="#C6C6C6"/>
<path d="M81.4582 1022.59C108.15 1020.78 134.296 1024.41 161.17 1023.16C194.257 1021.67 226.726 1024.97 259.777 1023.01C285.433 1021.45 314.287 1020.2 335.873 1021C334.363 1017.06 332.54 1013.26 330.422 1009.62C274.804 915.138 252.891 712.979 178.14 712.979C103.389 712.979 79.0416 932.363 33.308 1005.73C30.5825 1010.02 28.5293 1018 26.9485 1022.41C44.537 1018.09 58.3825 1024.23 81.4582 1022.59Z" fill="#9D9D9C"/>
<path d="M842.231 1021.87C868.923 1020.05 895.051 1023.68 921.925 1022.43C955.03 1020.96 987.482 1024.25 1020.53 1022.29C1046.21 1020.72 1075.04 1019.47 1096.65 1020.29C1095.1 1016.35 1093.25 1012.55 1091.1 1008.91C1035.47 914.429 1013.56 712.253 938.823 712.253C864.09 712.253 839.833 931.563 794.099 1005.02C791.428 1009.31 789.303 1017.27 787.667 1021.63C805.31 1017.38 819.156 1023.48 842.231 1021.87Z" fill="#9D9D9C"/>
<path d="M412.15 1022.12C452.124 1019.34 491.389 1024.76 531.69 1022.96C581.348 1020.72 630.025 1025.76 679.611 1022.74C718.113 1020.38 761.375 1018.51 793.754 1019.72C791.454 1013.82 788.677 1008.11 785.451 1002.66C702.014 861.064 669.163 557.681 557.019 557.681C444.874 557.681 408.516 886.756 339.943 996.829C335.927 1003.26 332.766 1015.2 330.295 1021.74C356.768 1015.36 377.627 1024.52 412.15 1022.12Z" fill="#9D9D9C"/>
<path d="M957.974 599.418H545.644V616.061H957.974V599.418Z" fill="#706F6F"/>
<path d="M957.974 574.379H545.644V591.023H957.974V574.379Z" fill="#706F6F"/>
<path d="M957.974 549.36H545.644V566.003H957.974V549.36Z" fill="#706F6F"/>
<path d="M957.974 524.321H545.644V540.965H957.974V524.321Z" fill="#706F6F"/>
<path d="M957.974 499.301H545.644V515.945H957.974V499.301Z" fill="#706F6F"/>
<path d="M625.737 25.976H477.671V42.6196H625.737V25.976Z" fill="#706F6F"/>
<path d="M846.847 25.976H698.78V42.6196H846.847V25.976Z" fill="#706F6F"/>
<path d="M1090.23 25.976H942.166V42.6196H1090.23V25.976Z" fill="#706F6F"/>
<path d="M1210.5 763C1262.14 763 1304 718.9 1304 664.5C1304 610.1 1262.14 566 1210.5 566C1158.86 566 1117 610.1 1117 664.5C1117 718.9 1158.86 763 1210.5 763Z" fill="#9D9D9C"/>
<path d="M1340 398C1345.52 398 1350 393.523 1350 388C1350 382.477 1345.52 378 1340 378C1334.48 378 1330 382.477 1330 388C1330 393.523 1334.48 398 1340 398Z" fill="#9D9D9C"/>
<path d="M1340 508C1345.52 508 1350 503.523 1350 498C1350 492.477 1345.52 488 1340 488C1334.48 488 1330 492.477 1330 498C1330 503.523 1334.48 508 1340 508Z" fill="#9D9D9C"/>
<path d="M1340 472C1345.52 472 1350 467.523 1350 462C1350 456.477 1345.52 452 1340 452C1334.48 452 1330 456.477 1330 462C1330 467.523 1334.48 472 1340 472Z" fill="#9D9D9C"/>
<path d="M1340 437C1345.52 437 1350 432.523 1350 427C1350 421.477 1345.52 417 1340 417C1334.48 417 1330 421.477 1330 427C1330 432.523 1334.48 437 1340 437Z" fill="#9D9D9C"/>
<path d="M1340 361C1345.52 361 1350 356.523 1350 351C1350 345.477 1345.52 341 1340 341C1334.48 341 1330 345.477 1330 351C1330 356.523 1334.48 361 1340 361Z" fill="#9D9D9C"/>
</g>
<g clip-path="url(#clip1_14_24)">
<rect x="4" y="1024" width="1440" height="180" fill="#D9D9D9"/>
<path d="M427 1109H307V1125.64H427V1109Z" fill="#706F6F"/>
<path d="M595 1109H475V1125.64H595V1109Z" fill="#706F6F"/>
<path d="M763 1109H643V1125.64H763V1109Z" fill="#706F6F"/>
<path d="M931 1109H811V1125.64H931V1109Z" fill="#706F6F"/>
<path d="M1099 1109H979V1125.64H1099V1109Z" fill="#706F6F"/>
<rect x="37" y="1043" width="172" height="135" fill="#C6C6C6"/>
<circle cx="1204.5" cy="1116.5" r="21.5" fill="#9D9D9C"/>
<circle cx="1281.5" cy="1116.5" r="21.5" fill="#9D9D9C"/>
<circle cx="1358.5" cy="1116.5" r="21.5" fill="#9D9D9C"/>
<path d="M45.8225 1177.69C50.1426 1177.17 54.3744 1178.22 58.7239 1177.86C64.0792 1177.42 69.3344 1178.38 74.6838 1177.81C78.8363 1177.36 83.5063 1177 87 1177.23C86.7556 1176.09 86.4605 1174.99 86.1177 1173.93C77.1159 1146.56 73.5692 1088 61.4706 1088C49.3721 1088 45.4314 1151.55 38.0293 1172.81C37.5882 1174.05 37.2559 1176.36 37 1177.64C39.8467 1176.39 42.0876 1178.17 45.8225 1177.69Z" fill="#9D9D9C"/>
<path d="M167.83 1177.69C172.149 1177.17 176.377 1178.22 180.726 1177.86C186.083 1177.43 191.335 1178.38 196.683 1177.81C200.838 1177.36 205.504 1177 209 1177.23C208.75 1176.1 208.45 1174.99 208.103 1173.94C199.1 1146.57 195.554 1088 183.46 1088C171.367 1088 167.442 1151.53 160.041 1172.81C159.609 1174.06 159.265 1176.36 159 1177.62C161.855 1176.39 164.096 1178.16 167.83 1177.69Z" fill="#9D9D9C"/>
<path d="M99.0697 1177.53C105.452 1176.73 111.722 1178.3 118.157 1177.78C126.085 1177.13 133.858 1178.59 141.775 1177.71C147.922 1177.03 154.83 1176.49 160 1176.84C159.633 1175.13 159.189 1173.48 158.674 1171.9C145.352 1130.88 140.107 1043 122.201 1043C104.295 1043 98.4895 1138.32 87.5405 1170.21C86.8994 1172.07 86.3946 1175.53 86 1177.42C90.227 1175.58 93.5575 1178.23 99.0697 1177.53Z" fill="#9D9D9C"/>
</g>
</g>
<defs>
<filter id="filter0_d_14_24" x="0" y="0" width="1448" height="1212" filterUnits="userSpaceOnUse" color-interpolation-filters="sRGB">
<feFlood flood-opacity="0" result="BackgroundImageFix"/>
<feColorMatrix in="SourceAlpha" type="matrix" values="0 0 0 0 0 0 0 0 0 0 0 0 0 0 0 0 0 0 127 0" result="hardAlpha"/>
<feOffset dy="4"/>
<feGaussianBlur stdDeviation="2"/>
<feComposite in2="hardAlpha" operator="out"/>
<feColorMatrix type="matrix" values="0 0 0 0 0 0 0 0 0 0 0 0 0 0 0 0 0 0 0.25 0"/>
<feBlend mode="normal" in2="BackgroundImageFix" result="effect1_dropShadow_14_24"/>
<feBlend mode="normal" in="SourceGraphic" in2="effect1_dropShadow_14_24" result="shape"/>
</filter>
<clipPath id="clip0_14_24">
<rect width="1440" height="1006.74" fill="white" transform="translate(4 17)"/>
</clipPath>
<clipPath id="clip1_14_24">
<rect width="1440" height="180" fill="white" transform="translate(4 1024)"/>
</clipPath>
</defs>
</svg>
